<mxfile host="65bd71144e">
    <diagram id="sJD9SuqwNcEyZLSY_98j" name="Page-1">
        <mxGraphModel dx="2439" dy="2149" grid="1" gridSize="10" guides="1" tooltips="1" connect="1" arrows="1" fold="1" page="1" pageScale="1" pageWidth="850" pageHeight="1100" math="0" shadow="0">
            <root>
                <mxCell id="0"/>
                <mxCell id="1" parent="0"/>
                <mxCell id="138" value="" style="rounded=0;whiteSpace=wrap;html=1;labelBackgroundColor=none;fontColor=#000000;" vertex="1" parent="1">
                    <mxGeometry x="1280" width="500" height="490" as="geometry"/>
                </mxCell>
                <mxCell id="132" value="" style="rounded=0;whiteSpace=wrap;html=1;labelBackgroundColor=none;fontColor=#000000;" vertex="1" parent="1">
                    <mxGeometry x="810" y="50" width="450" height="440" as="geometry"/>
                </mxCell>
                <mxCell id="2" value="Ensamblado" style="shape=table;startSize=30;container=1;collapsible=1;childLayout=tableLayout;fixedRows=1;rowLines=0;fontStyle=1;align=center;resizeLast=1;" vertex="1" parent="1">
                    <mxGeometry x="280" y="230" width="180" height="150" as="geometry"/>
                </mxCell>
                <mxCell id="3" value="" style="shape=tableRow;horizontal=0;startSize=0;swimlaneHead=0;swimlaneBody=0;fillColor=none;collapsible=0;dropTarget=0;points=[[0,0.5],[1,0.5]];portConstraint=eastwest;top=0;left=0;right=0;bottom=1;" vertex="1" parent="2">
                    <mxGeometry y="30" width="180" height="30" as="geometry"/>
                </mxCell>
                <mxCell id="4" value="PK" style="shape=partialRectangle;connectable=0;fillColor=none;top=0;left=0;bottom=0;right=0;fontStyle=1;overflow=hidden;" vertex="1" parent="3">
                    <mxGeometry width="30" height="30" as="geometry">
                        <mxRectangle width="30" height="30" as="alternateBounds"/>
                    </mxGeometry>
                </mxCell>
                <mxCell id="5" value="UniqueID" style="shape=partialRectangle;connectable=0;fillColor=none;top=0;left=0;bottom=0;right=0;align=left;spacingLeft=6;fontStyle=5;overflow=hidden;" vertex="1" parent="3">
                    <mxGeometry x="30" width="150" height="30" as="geometry">
                        <mxRectangle width="150" height="30" as="alternateBounds"/>
                    </mxGeometry>
                </mxCell>
                <mxCell id="6" value="" style="shape=tableRow;horizontal=0;startSize=0;swimlaneHead=0;swimlaneBody=0;fillColor=none;collapsible=0;dropTarget=0;points=[[0,0.5],[1,0.5]];portConstraint=eastwest;top=0;left=0;right=0;bottom=0;" vertex="1" parent="2">
                    <mxGeometry y="60" width="180" height="30" as="geometry"/>
                </mxCell>
                <mxCell id="7" value="FK" style="shape=partialRectangle;connectable=0;fillColor=none;top=0;left=0;bottom=0;right=0;editable=1;overflow=hidden;" vertex="1" parent="6">
                    <mxGeometry width="30" height="30" as="geometry">
                        <mxRectangle width="30" height="30" as="alternateBounds"/>
                    </mxGeometry>
                </mxCell>
                <mxCell id="8" value="IdExaBot" style="shape=partialRectangle;connectable=0;fillColor=none;top=0;left=0;bottom=0;right=0;align=left;spacingLeft=6;overflow=hidden;" vertex="1" parent="6">
                    <mxGeometry x="30" width="150" height="30" as="geometry">
                        <mxRectangle width="150" height="30" as="alternateBounds"/>
                    </mxGeometry>
                </mxCell>
                <mxCell id="9" value="" style="shape=tableRow;horizontal=0;startSize=0;swimlaneHead=0;swimlaneBody=0;fillColor=none;collapsible=0;dropTarget=0;points=[[0,0.5],[1,0.5]];portConstraint=eastwest;top=0;left=0;right=0;bottom=0;" vertex="1" parent="2">
                    <mxGeometry y="90" width="180" height="30" as="geometry"/>
                </mxCell>
                <mxCell id="10" value="FK" style="shape=partialRectangle;connectable=0;fillColor=none;top=0;left=0;bottom=0;right=0;editable=1;overflow=hidden;" vertex="1" parent="9">
                    <mxGeometry width="30" height="30" as="geometry">
                        <mxRectangle width="30" height="30" as="alternateBounds"/>
                    </mxGeometry>
                </mxCell>
                <mxCell id="11" value="IdPersonaSoldado" style="shape=partialRectangle;connectable=0;fillColor=none;top=0;left=0;bottom=0;right=0;align=left;spacingLeft=6;overflow=hidden;" vertex="1" parent="9">
                    <mxGeometry x="30" width="150" height="30" as="geometry">
                        <mxRectangle width="150" height="30" as="alternateBounds"/>
                    </mxGeometry>
                </mxCell>
                <mxCell id="12" value="" style="shape=tableRow;horizontal=0;startSize=0;swimlaneHead=0;swimlaneBody=0;fillColor=none;collapsible=0;dropTarget=0;points=[[0,0.5],[1,0.5]];portConstraint=eastwest;top=0;left=0;right=0;bottom=0;" vertex="1" parent="2">
                    <mxGeometry y="120" width="180" height="30" as="geometry"/>
                </mxCell>
                <mxCell id="13" value="FK" style="shape=partialRectangle;connectable=0;fillColor=none;top=0;left=0;bottom=0;right=0;editable=1;overflow=hidden;" vertex="1" parent="12">
                    <mxGeometry width="30" height="30" as="geometry">
                        <mxRectangle width="30" height="30" as="alternateBounds"/>
                    </mxGeometry>
                </mxCell>
                <mxCell id="14" value="IdPersonaMecatronico" style="shape=partialRectangle;connectable=0;fillColor=none;top=0;left=0;bottom=0;right=0;align=left;spacingLeft=6;overflow=hidden;" vertex="1" parent="12">
                    <mxGeometry x="30" width="150" height="30" as="geometry">
                        <mxRectangle width="150" height="30" as="alternateBounds"/>
                    </mxGeometry>
                </mxCell>
                <mxCell id="16" value="Table" style="shape=table;startSize=30;container=1;collapsible=1;childLayout=tableLayout;fixedRows=1;rowLines=0;fontStyle=1;align=center;resizeLast=1;" vertex="1" parent="1">
                    <mxGeometry x="-100" y="110" width="180" height="150" as="geometry"/>
                </mxCell>
                <mxCell id="17" value="" style="shape=tableRow;horizontal=0;startSize=0;swimlaneHead=0;swimlaneBody=0;fillColor=none;collapsible=0;dropTarget=0;points=[[0,0.5],[1,0.5]];portConstraint=eastwest;top=0;left=0;right=0;bottom=0;" vertex="1" parent="16">
                    <mxGeometry y="30" width="180" height="30" as="geometry"/>
                </mxCell>
                <mxCell id="18" value="PK" style="shape=partialRectangle;connectable=0;fillColor=none;top=0;left=0;bottom=0;right=0;fontStyle=1;overflow=hidden;" vertex="1" parent="17">
                    <mxGeometry width="60" height="30" as="geometry">
                        <mxRectangle width="60" height="30" as="alternateBounds"/>
                    </mxGeometry>
                </mxCell>
                <mxCell id="19" value="ExoBot" style="shape=partialRectangle;connectable=0;fillColor=none;top=0;left=0;bottom=0;right=0;align=left;spacingLeft=6;fontStyle=5;overflow=hidden;" vertex="1" parent="17">
                    <mxGeometry x="60" width="120" height="30" as="geometry">
                        <mxRectangle width="120" height="30" as="alternateBounds"/>
                    </mxGeometry>
                </mxCell>
                <mxCell id="20" value="" style="shape=tableRow;horizontal=0;startSize=0;swimlaneHead=0;swimlaneBody=0;fillColor=none;collapsible=0;dropTarget=0;points=[[0,0.5],[1,0.5]];portConstraint=eastwest;top=0;left=0;right=0;bottom=1;" vertex="1" parent="16">
                    <mxGeometry y="60" width="180" height="30" as="geometry"/>
                </mxCell>
                <mxCell id="21" value="FK" style="shape=partialRectangle;connectable=0;fillColor=none;top=0;left=0;bottom=0;right=0;fontStyle=1;overflow=hidden;" vertex="1" parent="20">
                    <mxGeometry width="60" height="30" as="geometry">
                        <mxRectangle width="60" height="30" as="alternateBounds"/>
                    </mxGeometry>
                </mxCell>
                <mxCell id="22" value="IdIABot" style="shape=partialRectangle;connectable=0;fillColor=none;top=0;left=0;bottom=0;right=0;align=left;spacingLeft=6;fontStyle=5;overflow=hidden;" vertex="1" parent="20">
                    <mxGeometry x="60" width="120" height="30" as="geometry">
                        <mxRectangle width="120" height="30" as="alternateBounds"/>
                    </mxGeometry>
                </mxCell>
                <mxCell id="23" value="" style="shape=tableRow;horizontal=0;startSize=0;swimlaneHead=0;swimlaneBody=0;fillColor=none;collapsible=0;dropTarget=0;points=[[0,0.5],[1,0.5]];portConstraint=eastwest;top=0;left=0;right=0;bottom=0;" vertex="1" parent="16">
                    <mxGeometry y="90" width="180" height="30" as="geometry"/>
                </mxCell>
                <mxCell id="24" value="" style="shape=partialRectangle;connectable=0;fillColor=none;top=0;left=0;bottom=0;right=0;editable=1;overflow=hidden;" vertex="1" parent="23">
                    <mxGeometry width="60" height="30" as="geometry">
                        <mxRectangle width="60" height="30" as="alternateBounds"/>
                    </mxGeometry>
                </mxCell>
                <mxCell id="25" value="Nombre" style="shape=partialRectangle;connectable=0;fillColor=none;top=0;left=0;bottom=0;right=0;align=left;spacingLeft=6;overflow=hidden;" vertex="1" parent="23">
                    <mxGeometry x="60" width="120" height="30" as="geometry">
                        <mxRectangle width="120" height="30" as="alternateBounds"/>
                    </mxGeometry>
                </mxCell>
                <mxCell id="26" value="" style="shape=tableRow;horizontal=0;startSize=0;swimlaneHead=0;swimlaneBody=0;fillColor=none;collapsible=0;dropTarget=0;points=[[0,0.5],[1,0.5]];portConstraint=eastwest;top=0;left=0;right=0;bottom=0;" vertex="1" parent="16">
                    <mxGeometry y="120" width="180" height="30" as="geometry"/>
                </mxCell>
                <mxCell id="27" value="" style="shape=partialRectangle;connectable=0;fillColor=none;top=0;left=0;bottom=0;right=0;editable=1;overflow=hidden;" vertex="1" parent="26">
                    <mxGeometry width="60" height="30" as="geometry">
                        <mxRectangle width="60" height="30" as="alternateBounds"/>
                    </mxGeometry>
                </mxCell>
                <mxCell id="28" value="Serie" style="shape=partialRectangle;connectable=0;fillColor=none;top=0;left=0;bottom=0;right=0;align=left;spacingLeft=6;overflow=hidden;" vertex="1" parent="26">
                    <mxGeometry x="60" width="120" height="30" as="geometry">
                        <mxRectangle width="120" height="30" as="alternateBounds"/>
                    </mxGeometry>
                </mxCell>
                <mxCell id="29" value="" style="edgeStyle=entityRelationEdgeStyle;fontSize=12;html=1;endArrow=ERone;endFill=1;exitX=0;exitY=0.5;exitDx=0;exitDy=0;strokeWidth=1;entryX=1;entryY=0.5;entryDx=0;entryDy=0;" edge="1" parent="1" source="6" target="17">
                    <mxGeometry width="100" height="100" relative="1" as="geometry">
                        <mxPoint x="60" y="600" as="sourcePoint"/>
                        <mxPoint x="160" y="500" as="targetPoint"/>
                    </mxGeometry>
                </mxCell>
                <mxCell id="30" value="Persona" style="shape=table;startSize=30;container=1;collapsible=1;childLayout=tableLayout;fixedRows=1;rowLines=0;fontStyle=1;align=center;resizeLast=1;" vertex="1" parent="1">
                    <mxGeometry x="-100" y="350" width="210" height="190" as="geometry"/>
                </mxCell>
                <mxCell id="31" value="" style="shape=tableRow;horizontal=0;startSize=0;swimlaneHead=0;swimlaneBody=0;fillColor=none;collapsible=0;dropTarget=0;points=[[0,0.5],[1,0.5]];portConstraint=eastwest;top=0;left=0;right=0;bottom=0;" vertex="1" parent="30">
                    <mxGeometry y="30" width="210" height="30" as="geometry"/>
                </mxCell>
                <mxCell id="32" value="PK" style="shape=partialRectangle;connectable=0;fillColor=none;top=0;left=0;bottom=0;right=0;fontStyle=1;overflow=hidden;" vertex="1" parent="31">
                    <mxGeometry width="60" height="30" as="geometry">
                        <mxRectangle width="60" height="30" as="alternateBounds"/>
                    </mxGeometry>
                </mxCell>
                <mxCell id="33" value="IdPersona" style="shape=partialRectangle;connectable=0;fillColor=none;top=0;left=0;bottom=0;right=0;align=left;spacingLeft=6;fontStyle=5;overflow=hidden;" vertex="1" parent="31">
                    <mxGeometry x="60" width="150" height="30" as="geometry">
                        <mxRectangle width="150" height="30" as="alternateBounds"/>
                    </mxGeometry>
                </mxCell>
                <mxCell id="34" value="" style="shape=tableRow;horizontal=0;startSize=0;swimlaneHead=0;swimlaneBody=0;fillColor=none;collapsible=0;dropTarget=0;points=[[0,0.5],[1,0.5]];portConstraint=eastwest;top=0;left=0;right=0;bottom=1;" vertex="1" parent="30">
                    <mxGeometry y="60" width="210" height="70" as="geometry"/>
                </mxCell>
                <mxCell id="35" value="FK&#10;&#10;FK&#10;&#10;FK" style="shape=partialRectangle;connectable=0;fillColor=none;top=0;left=0;bottom=0;right=0;fontStyle=1;overflow=hidden;" vertex="1" parent="34">
                    <mxGeometry width="60" height="70" as="geometry">
                        <mxRectangle width="60" height="70" as="alternateBounds"/>
                    </mxGeometry>
                </mxCell>
                <mxCell id="36" value="IdPersonaTipo &#10;&#10;IdCatalogoSexo&#10;&#10;IdCatalogoEstadoCivil" style="shape=partialRectangle;connectable=0;fillColor=none;top=0;left=0;bottom=0;right=0;align=left;spacingLeft=6;fontStyle=5;overflow=hidden;" vertex="1" parent="34">
                    <mxGeometry x="60" width="150" height="70" as="geometry">
                        <mxRectangle width="150" height="70" as="alternateBounds"/>
                    </mxGeometry>
                </mxCell>
                <mxCell id="37" value="" style="shape=tableRow;horizontal=0;startSize=0;swimlaneHead=0;swimlaneBody=0;fillColor=none;collapsible=0;dropTarget=0;points=[[0,0.5],[1,0.5]];portConstraint=eastwest;top=0;left=0;right=0;bottom=0;" vertex="1" parent="30">
                    <mxGeometry y="130" width="210" height="30" as="geometry"/>
                </mxCell>
                <mxCell id="38" value="" style="shape=partialRectangle;connectable=0;fillColor=none;top=0;left=0;bottom=0;right=0;editable=1;overflow=hidden;" vertex="1" parent="37">
                    <mxGeometry width="60" height="30" as="geometry">
                        <mxRectangle width="60" height="30" as="alternateBounds"/>
                    </mxGeometry>
                </mxCell>
                <mxCell id="39" value="Cedula" style="shape=partialRectangle;connectable=0;fillColor=none;top=0;left=0;bottom=0;right=0;align=left;spacingLeft=6;overflow=hidden;" vertex="1" parent="37">
                    <mxGeometry x="60" width="150" height="30" as="geometry">
                        <mxRectangle width="150" height="30" as="alternateBounds"/>
                    </mxGeometry>
                </mxCell>
                <mxCell id="40" value="" style="shape=tableRow;horizontal=0;startSize=0;swimlaneHead=0;swimlaneBody=0;fillColor=none;collapsible=0;dropTarget=0;points=[[0,0.5],[1,0.5]];portConstraint=eastwest;top=0;left=0;right=0;bottom=0;" vertex="1" parent="30">
                    <mxGeometry y="160" width="210" height="30" as="geometry"/>
                </mxCell>
                <mxCell id="41" value="" style="shape=partialRectangle;connectable=0;fillColor=none;top=0;left=0;bottom=0;right=0;editable=1;overflow=hidden;" vertex="1" parent="40">
                    <mxGeometry width="60" height="30" as="geometry">
                        <mxRectangle width="60" height="30" as="alternateBounds"/>
                    </mxGeometry>
                </mxCell>
                <mxCell id="42" value="Nombre" style="shape=partialRectangle;connectable=0;fillColor=none;top=0;left=0;bottom=0;right=0;align=left;spacingLeft=6;overflow=hidden;" vertex="1" parent="40">
                    <mxGeometry x="60" width="150" height="30" as="geometry">
                        <mxRectangle width="150" height="30" as="alternateBounds"/>
                    </mxGeometry>
                </mxCell>
                <mxCell id="44" value="" style="edgeStyle=entityRelationEdgeStyle;fontSize=12;html=1;endArrow=ERone;endFill=1;strokeWidth=1;entryX=1;entryY=0.5;entryDx=0;entryDy=0;exitX=0;exitY=0.5;exitDx=0;exitDy=0;" edge="1" parent="1" source="9" target="31">
                    <mxGeometry width="100" height="100" relative="1" as="geometry">
                        <mxPoint x="100" y="610" as="sourcePoint"/>
                        <mxPoint x="200" y="510" as="targetPoint"/>
                    </mxGeometry>
                </mxCell>
                <mxCell id="45" value="" style="edgeStyle=entityRelationEdgeStyle;fontSize=12;html=1;endArrow=ERone;endFill=1;strokeWidth=1;entryX=1;entryY=0.5;entryDx=0;entryDy=0;exitX=0;exitY=0.5;exitDx=0;exitDy=0;" edge="1" parent="1" source="12" target="31">
                    <mxGeometry width="100" height="100" relative="1" as="geometry">
                        <mxPoint x="260" y="600" as="sourcePoint"/>
                        <mxPoint x="360" y="500" as="targetPoint"/>
                    </mxGeometry>
                </mxCell>
                <mxCell id="46" value="IABot" style="shape=table;startSize=30;container=1;collapsible=1;childLayout=tableLayout;fixedRows=1;rowLines=0;fontStyle=1;align=center;resizeLast=1;" vertex="1" parent="1">
                    <mxGeometry x="-390" y="105" width="180" height="150" as="geometry"/>
                </mxCell>
                <mxCell id="47" value="" style="shape=tableRow;horizontal=0;startSize=0;swimlaneHead=0;swimlaneBody=0;fillColor=none;collapsible=0;dropTarget=0;points=[[0,0.5],[1,0.5]];portConstraint=eastwest;top=0;left=0;right=0;bottom=1;" vertex="1" parent="46">
                    <mxGeometry y="30" width="180" height="30" as="geometry"/>
                </mxCell>
                <mxCell id="48" value="PK" style="shape=partialRectangle;connectable=0;fillColor=none;top=0;left=0;bottom=0;right=0;fontStyle=1;overflow=hidden;" vertex="1" parent="47">
                    <mxGeometry width="30" height="30" as="geometry">
                        <mxRectangle width="30" height="30" as="alternateBounds"/>
                    </mxGeometry>
                </mxCell>
                <mxCell id="49" value="IdIABot" style="shape=partialRectangle;connectable=0;fillColor=none;top=0;left=0;bottom=0;right=0;align=left;spacingLeft=6;fontStyle=5;overflow=hidden;" vertex="1" parent="47">
                    <mxGeometry x="30" width="150" height="30" as="geometry">
                        <mxRectangle width="150" height="30" as="alternateBounds"/>
                    </mxGeometry>
                </mxCell>
                <mxCell id="50" value="" style="shape=tableRow;horizontal=0;startSize=0;swimlaneHead=0;swimlaneBody=0;fillColor=none;collapsible=0;dropTarget=0;points=[[0,0.5],[1,0.5]];portConstraint=eastwest;top=0;left=0;right=0;bottom=0;" vertex="1" parent="46">
                    <mxGeometry y="60" width="180" height="30" as="geometry"/>
                </mxCell>
                <mxCell id="51" value="" style="shape=partialRectangle;connectable=0;fillColor=none;top=0;left=0;bottom=0;right=0;editable=1;overflow=hidden;" vertex="1" parent="50">
                    <mxGeometry width="30" height="30" as="geometry">
                        <mxRectangle width="30" height="30" as="alternateBounds"/>
                    </mxGeometry>
                </mxCell>
                <mxCell id="52" value="Nombre" style="shape=partialRectangle;connectable=0;fillColor=none;top=0;left=0;bottom=0;right=0;align=left;spacingLeft=6;overflow=hidden;" vertex="1" parent="50">
                    <mxGeometry x="30" width="150" height="30" as="geometry">
                        <mxRectangle width="150" height="30" as="alternateBounds"/>
                    </mxGeometry>
                </mxCell>
                <mxCell id="53" value="" style="shape=tableRow;horizontal=0;startSize=0;swimlaneHead=0;swimlaneBody=0;fillColor=none;collapsible=0;dropTarget=0;points=[[0,0.5],[1,0.5]];portConstraint=eastwest;top=0;left=0;right=0;bottom=0;" vertex="1" parent="46">
                    <mxGeometry y="90" width="180" height="30" as="geometry"/>
                </mxCell>
                <mxCell id="54" value="" style="shape=partialRectangle;connectable=0;fillColor=none;top=0;left=0;bottom=0;right=0;editable=1;overflow=hidden;" vertex="1" parent="53">
                    <mxGeometry width="30" height="30" as="geometry">
                        <mxRectangle width="30" height="30" as="alternateBounds"/>
                    </mxGeometry>
                </mxCell>
                <mxCell id="55" value="Observacion " style="shape=partialRectangle;connectable=0;fillColor=none;top=0;left=0;bottom=0;right=0;align=left;spacingLeft=6;overflow=hidden;" vertex="1" parent="53">
                    <mxGeometry x="30" width="150" height="30" as="geometry">
                        <mxRectangle width="150" height="30" as="alternateBounds"/>
                    </mxGeometry>
                </mxCell>
                <mxCell id="56" value="" style="shape=tableRow;horizontal=0;startSize=0;swimlaneHead=0;swimlaneBody=0;fillColor=none;collapsible=0;dropTarget=0;points=[[0,0.5],[1,0.5]];portConstraint=eastwest;top=0;left=0;right=0;bottom=0;" vertex="1" parent="46">
                    <mxGeometry y="120" width="180" height="30" as="geometry"/>
                </mxCell>
                <mxCell id="57" value="" style="shape=partialRectangle;connectable=0;fillColor=none;top=0;left=0;bottom=0;right=0;editable=1;overflow=hidden;" vertex="1" parent="56">
                    <mxGeometry width="30" height="30" as="geometry">
                        <mxRectangle width="30" height="30" as="alternateBounds"/>
                    </mxGeometry>
                </mxCell>
                <mxCell id="58" value="FechaCrea" style="shape=partialRectangle;connectable=0;fillColor=none;top=0;left=0;bottom=0;right=0;align=left;spacingLeft=6;overflow=hidden;" vertex="1" parent="56">
                    <mxGeometry x="30" width="150" height="30" as="geometry">
                        <mxRectangle width="150" height="30" as="alternateBounds"/>
                    </mxGeometry>
                </mxCell>
                <mxCell id="59" value="PersonaTipo" style="shape=table;startSize=30;container=1;collapsible=1;childLayout=tableLayout;fixedRows=1;rowLines=0;fontStyle=1;align=center;resizeLast=1;" vertex="1" parent="1">
                    <mxGeometry x="-380" y="580" width="180" height="150" as="geometry"/>
                </mxCell>
                <mxCell id="60" value="" style="shape=tableRow;horizontal=0;startSize=0;swimlaneHead=0;swimlaneBody=0;fillColor=none;collapsible=0;dropTarget=0;points=[[0,0.5],[1,0.5]];portConstraint=eastwest;top=0;left=0;right=0;bottom=1;" vertex="1" parent="59">
                    <mxGeometry y="30" width="180" height="30" as="geometry"/>
                </mxCell>
                <mxCell id="61" value="PK" style="shape=partialRectangle;connectable=0;fillColor=none;top=0;left=0;bottom=0;right=0;fontStyle=1;overflow=hidden;" vertex="1" parent="60">
                    <mxGeometry width="30" height="30" as="geometry">
                        <mxRectangle width="30" height="30" as="alternateBounds"/>
                    </mxGeometry>
                </mxCell>
                <mxCell id="62" value="IdPersonaTipo" style="shape=partialRectangle;connectable=0;fillColor=none;top=0;left=0;bottom=0;right=0;align=left;spacingLeft=6;fontStyle=5;overflow=hidden;" vertex="1" parent="60">
                    <mxGeometry x="30" width="150" height="30" as="geometry">
                        <mxRectangle width="150" height="30" as="alternateBounds"/>
                    </mxGeometry>
                </mxCell>
                <mxCell id="63" value="" style="shape=tableRow;horizontal=0;startSize=0;swimlaneHead=0;swimlaneBody=0;fillColor=none;collapsible=0;dropTarget=0;points=[[0,0.5],[1,0.5]];portConstraint=eastwest;top=0;left=0;right=0;bottom=0;" vertex="1" parent="59">
                    <mxGeometry y="60" width="180" height="30" as="geometry"/>
                </mxCell>
                <mxCell id="64" value="" style="shape=partialRectangle;connectable=0;fillColor=none;top=0;left=0;bottom=0;right=0;editable=1;overflow=hidden;" vertex="1" parent="63">
                    <mxGeometry width="30" height="30" as="geometry">
                        <mxRectangle width="30" height="30" as="alternateBounds"/>
                    </mxGeometry>
                </mxCell>
                <mxCell id="65" value="Nombre" style="shape=partialRectangle;connectable=0;fillColor=none;top=0;left=0;bottom=0;right=0;align=left;spacingLeft=6;overflow=hidden;" vertex="1" parent="63">
                    <mxGeometry x="30" width="150" height="30" as="geometry">
                        <mxRectangle width="150" height="30" as="alternateBounds"/>
                    </mxGeometry>
                </mxCell>
                <mxCell id="66" value="" style="shape=tableRow;horizontal=0;startSize=0;swimlaneHead=0;swimlaneBody=0;fillColor=none;collapsible=0;dropTarget=0;points=[[0,0.5],[1,0.5]];portConstraint=eastwest;top=0;left=0;right=0;bottom=0;" vertex="1" parent="59">
                    <mxGeometry y="90" width="180" height="30" as="geometry"/>
                </mxCell>
                <mxCell id="67" value="" style="shape=partialRectangle;connectable=0;fillColor=none;top=0;left=0;bottom=0;right=0;editable=1;overflow=hidden;" vertex="1" parent="66">
                    <mxGeometry width="30" height="30" as="geometry">
                        <mxRectangle width="30" height="30" as="alternateBounds"/>
                    </mxGeometry>
                </mxCell>
                <mxCell id="68" value="Observacion" style="shape=partialRectangle;connectable=0;fillColor=none;top=0;left=0;bottom=0;right=0;align=left;spacingLeft=6;overflow=hidden;" vertex="1" parent="66">
                    <mxGeometry x="30" width="150" height="30" as="geometry">
                        <mxRectangle width="150" height="30" as="alternateBounds"/>
                    </mxGeometry>
                </mxCell>
                <mxCell id="69" value="" style="shape=tableRow;horizontal=0;startSize=0;swimlaneHead=0;swimlaneBody=0;fillColor=none;collapsible=0;dropTarget=0;points=[[0,0.5],[1,0.5]];portConstraint=eastwest;top=0;left=0;right=0;bottom=0;" vertex="1" parent="59">
                    <mxGeometry y="120" width="180" height="30" as="geometry"/>
                </mxCell>
                <mxCell id="70" value="" style="shape=partialRectangle;connectable=0;fillColor=none;top=0;left=0;bottom=0;right=0;editable=1;overflow=hidden;" vertex="1" parent="69">
                    <mxGeometry width="30" height="30" as="geometry">
                        <mxRectangle width="30" height="30" as="alternateBounds"/>
                    </mxGeometry>
                </mxCell>
                <mxCell id="71" value="FechaCrea" style="shape=partialRectangle;connectable=0;fillColor=none;top=0;left=0;bottom=0;right=0;align=left;spacingLeft=6;overflow=hidden;" vertex="1" parent="69">
                    <mxGeometry x="30" width="150" height="30" as="geometry">
                        <mxRectangle width="150" height="30" as="alternateBounds"/>
                    </mxGeometry>
                </mxCell>
                <mxCell id="72" value="" style="edgeStyle=entityRelationEdgeStyle;fontSize=12;html=1;endArrow=ERoneToMany;strokeWidth=1;exitX=1;exitY=0.5;exitDx=0;exitDy=0;entryX=0;entryY=0.5;entryDx=0;entryDy=0;" edge="1" parent="1" source="47" target="20">
                    <mxGeometry width="100" height="100" relative="1" as="geometry">
                        <mxPoint x="-550" y="460" as="sourcePoint"/>
                        <mxPoint x="-450" y="360" as="targetPoint"/>
                    </mxGeometry>
                </mxCell>
                <mxCell id="76" value="" style="shape=image;verticalLabelPosition=bottom;labelBackgroundColor=default;verticalAlign=top;aspect=fixed;imageAspect=0;image=data:image/png,iVBORw0KGgoAAAANSUhEUgAAANYAAABaCAYAAADEkaiNAAAAAXNSR0IArs4c6QAAAARnQU1BAACxjwv8YQUAAAAJcEhZcwAADsMAAA7DAcdvqGQAAELDSURBVHhe7b0JgJ11eS/8O/s5c2bfMktmJvsekrAkgCSssrWXD1DUauult1a9xftZSqVaW7Uovba1+vVqW+2n3msrSgVRQIQQQggEAoQkZM9kz0wmk9nXs2/39/u/52TOTGZJZiaEwDzJM+973uW/Pr//8zz/7bUFA+EUxiLb2I+MSilb+mScdLHHPxqdbdomkAabbWL5T6Xe5/U/Gp1OW1YaU3aMDazhXjwnSmdqvJm76OMfi5guVsSoZEvyz/jjHwqsoUAZet9mGz09qZTSM0DJxODfDqczfWbRhHFp4htvIBOs/7HIyEeCrKPYzvKw8+9Z0URKZiLvZuhijv9sSRU/HF8IUn5H5mQyOYhtdtsgHvy8KHMcD2WHMx6ayLtnQ5n0CfwZZs2dncaaaOJY2BPSGBd7/KOR0qb2baT0Me53XGONXlbOIRpp6POxWCx9JrKl4xs9zJEpdYaGPHdi3OddYymNCaaWGivpmALWmDQFrDNo6H1prWwafP/9AKwMqOLKPOKJKWCNTe8BYA2lsYA0FvDOljLh2GwOcxyJhvpodsdgDyWZpMBOiFTG48vD2JRi6EkGT2DZ4jpDPHnWPtYUTdHZkwA1FJyj0Zk+2sVH1Mv8y3wz+Qn+mwLWFE0anSugMmS3s4XP4oubUnC6Xe8gsGRSjcTvBA0Xb4YvMCkFQ1OhdjvDZ9wcQhRn8y/9I8188zSbOwO3zK+s8CdIYwNqtHtMA03NbD4vNFy9Z3gsGu6dLLaK2J5mGyKx8DvlY41G6YJU6oaj90D8o/neqggrDVb8+mtndAOpUcXJch8+DbqeNGnUexRM80/tpSx/hWL6qcxzCf7UkxJePeFIx5Oi+ZUd+lCQjCTs49FOZ1I67FHK39Ji449r9HQq3hHiNqThBfl4w4eRqT+rHpIs4xgCsX5TvheYJqNyJkLvVPyZChzKTAEPqdMAFpBUTenz02fDsxVE+lcaYJlTAVScvmQ4ORCtBeDMjXOgsTXUudBkhTNeOpsCyDwzPAtcGW1lNFYk9G4A1hSdriBKubSP9EuCxzhZWkZgSFFrDMt8U39Nz5TYluAF6aokNVLSVLf+KQwDKhFfMqDjqThzeSyaXEC9dykQDEwB691A0ho2mXFptkQ9w7pH4IzAdjGRMtBeSvDTpiMDPg0qE5K5dBpM1pPWcTSaAtS5UTwWfzf4WCJW8yg29sUev+VjDYSfSGqknleocew2Oxx2J68RAIkEXC4XHE4H72nOHRALx+FADMl41LyjeXjxWMx6187niBKBx+5wmPGgWCwBu9NNwFgaLZ4kyPhMLBqFk9fcThdfsPKTydnQLu6hPtX5BxXjO4/lP5KPOEC6P9IzrJekZpIMnwarKXOYu0laC/KxDjfunwKWRec3/qHAiifiBgROlxMeCrqdoHK43eZesj+IYG8fWk6eRCIaR6C3C32dLYiEAgiFgkbIJSiaVuTxeGAjCL1+H2wEVr4/D16fH+XV1fAVFMKZ60eS4Isz/YwCiTQghcbs7Opadu6ngJVN5w6sPQffngKWRec3/qHASvJCZhqQl8CIdHaip7UFJ44cRcvRBrQeOY6WY8cBAisW6Ee4t5Oai4ATsIgQaRgn1ZmABRfVkZe6iNcK08AqmT4dpXW1qJw/D0U8nz57PjxFxQgR0FGZiemxIvUK6sw+RPCmgJVN5xVYoollbnQaq2BFF2/8BgzpcwmyLZ6AmybfycOHcWzvXuzfshkN+/eju7UN8d5+2AMRpIJh+AgeGm6wJaJIxa2JrTITjQ1PYVE3tMy8pNNGc5KcSCHKe2FGZsvNQZJcOL0Gc5etxLzLr8DMFUuRVzkNMYc64E2uzd/MMhHzl9k8DTQelOsLDyzR+NMw9qCz4h4hfsYbT4wMLL1nebgCFkEoU7CBpmAoFEmp4kel05kbicafaYtGKVjRRR1/yphgXrcHCVaQh4+GWluxdf0GbN+wESf37kG07STc1CaJSIxAYiWF9bw7LdD0oHhP1Zeh7BZYY1c+F81IgZUAiUYjcHjdSDiACOWpi2HCXwxbSSlKF8/HJdetxsobb4CvpBgJjxusfbjcXkoF4KYA2tKNgPw34wsyrqTSMUrxjE2jlY9o9PK3fMDRwhg9/Ik0DHpTDU92CEM1fKZwkrwujdXee+osgTUaGaGbwPuGRi/YUeldHr967qhQ4KDplwgGceCtrXjlV7/Ggc1vIN7WAU80DHs0CCfDUMXk5PiRn1+AvMJCFFL4PT4vSkpLTaeGz+fj0UnwxMzSjFAoZPywYHcfTckO9BKwwd4eZiWJAE1IASM3vwgJuxcasmxJRuEoLcaSD1yNGz50F+ZceTniXi/CzH+C+XfxaPw9HanVYokEhZrabQKCeXb1M3r5jz5/cOzwJwosJkB/dGYou2HTmVjNkRnksLM+4r1TwLLo/MWv7nAPzTc6SDiw8VU88W8/xImt21HIynEQHKlkHC6/BzVzZ6Fm3lwUV1ehatZM5BYVwV9SRP/JB6gnj8CCL4dHJ6NjfDT5QJ+L0o94X4DqiUA71Yr2xka0Np9ES2MDDu7YhR5eK/bmwe2kxmQ6OgjubmrA2VdegTs/92nUXH0VYl6PAZcrrbEkRjKf1KPI5vmM2efnRFPAGidNAYt/Ro7fnkrCw/udB4/gN9/9Ad566reopOlmi0cRpAaZf/kKXPU7t2HWsqVAxTSabX7AQxCpY+K0J5ThNFm9IWnK3GPlKw/9/VppCPR0o3v/AWx/cSN2PL8eKWq1Yn8+H3WgMxxCQ6gfK+68HZ/40hfgqKtDgMJrTBwBi0cJT4LAkuaaAta5ASuSfFdMaXrvkVr7Aaa2YkW0UJM079qLSrsLeXwmFAnBOb0UKz/5Ecz6vQ8Dy5chWVYO5OUj5fTRZbJBHld/LIkYhc6MfGlgS9pLWsxFuDpcrEgn/Sk3Yqx8zdIIq5ewMBeYUYPC227C9fd9CuWXLUFHMoxgNAQ7/bwChlNKn2//lrfQsG+/0X6JSJS+nKWhTPc8w5KsT0QoJ4vU8I/ITN9YPFEaGl6CJnKG42SZylqMqXtJpkk0BazzQPJ/MpxQbx451ttHrdEDH002P+XXT5OuLxjA5u1vof7gQfTEoqYnT8CKuRymZ6+XJluczwXpK4VZcWG2iVFqgGAkQnMjZq5FCIJALIKItJjPA0c+QVVAE9LtREfbKby6dQv2HqqnD5UwPYv2eBxuvuPi0RYIIs50USKMIBjh0JGs9bASlCkaH02ZgoYmN361ZBlyU1jV47frl0/hN3/z98jv7keZPwfd8RCO2SPoyvXATVNszmWXYsGySzCtrgalVVXwFxfBTbPQRc2SEggYVqZbXIB10ERzUPMYjShYxBPoae9A84kG42Mdoyaq37oNbbv3wt/WiUqqoEqHD56UA0maok39vejxu3Hv1/4as+75MEKMwOZ2UQtS8zE/0rY2ajCZhRfaFByVJqX+RyYrdFP65rdoaIPjYFmJNDMzYYvT0ghMFrBE4w0jneAJFazo3RO/JewWualtbIF+7KVv9cxD34KvtROlXg+iFN8+vwMtqThaCLxu/k763HDl56G8djoKy8tRVlWJ8kqCLMcPNwHmz8kh0NymNzAajSJAfypOQPV296KjpRUtDSfQ29HO81O0NcPwRhOooMlYFk+iiFgvsruRjNDQYxgng30I5vnwh3/zFVTddafRfBCwqC0FLONHEFAO5uXdDyzRWHGMjwQqK+SB9A0GVgpOAyz5WAJWgnU7GcASnc7cOGm8hZqh8xz/6CbRmfcsmzuFHJ8PqUgYTvpTe55+Fuv/7rtwnjhFYHk1vwhxpx0BWxIhCnoPAdYdD6NfcwKZnLhMO80LVPhON/1nB8HlNp0JYYImQ0p5qD8At80BL5/38TkvK9jDOzr6efQTGH6eOwgw07o6HGiNBNHpdeCPvv5VVNx5F302NgY0H2OML6mODD4jn0taUuC1YhoHnW9giSZa/6OQQraGGwbSN7jzgtpddWXO6O+yPsOJPpb2ZJAKZSI8URouzHPhCZHeH8yaWCtgRSJRYsJjANLe1YX2zk4KaZKmIgWWdeGOUeAjSZTEbZgWt6PO7sNcVy5m8zgr5cKMmA21xFB1IIaqQBQVfRFM6wljJp8/zXxmsTMHi5w+LKCpN9fuxUy4UJt0opoVXUrTzxdnlScIdpqoBixJi+kAUmp4NOf0r8jqFWTiqaWoQfW8Eap3OQ1Xp5PFp+t1ZBKkLL02UFaTo7He4zQe4dIEW7Vsu7a+hf/88Y/w2iP/ibpgP1b6qjCNPpY6EWxsaWV2xaUVFIVL/k0SMQk6r7uoNUSqNg3UihRmdnq0rsrB+jOLFnnvtCjwt7rLVeEClDFXeJRpZ6PWazMay44//PrXjMZKuWgG0hSM8mVpLMUn304azhKP0YVrRHonNNZ5JCVr6AD5YI1lDEDzYNLmJNMCSfROksaaokGk+Xy7d+/G/fffjzvuuAO/+tUTmDNnDmZNm2XMOWksTcIVQKQlZMbJdPNQg7nCceSm7PCxrlyRGJyhKDVOkv5SHB7+doej5pjNPppqnlgc7iifJ3spB076dmIbtVIqpS7hhJmJkUjGzXmcx5g5J4iZDi1biSdtBLid17XcxBKoi0JjXVBS08VGSFYKj1aTONXdflYkvyabBRwJpDoQMmurvPSbdP3AwQP4whcexHXXXYef/vSnuPPOO/HMM7/F5//088j150JLRhzURBZbY116z8nfHpqMOTQdndJKBIt65FzUIgIDIUHEMi1OmppZbHPZkKC6SmlChhQcORwLMx7N6lDakrRE7RoXNvf0XNyeRNxBc8/NeNy8yHQ4PV44mYeUw40ogRWOUbs5XYNa53eKhpa3aYAmwENpaPhDeSgZSyCLs8M22pyayow70tzWuUp9CljjoEwvmZZtmDl8OV4cPXYUDz30ED74wQ/iRz/6Ee655x48//w6fO/738fcSy81msopcytdz6ZS0ia4wrM0GM915G8BLkWwJWgexr1ORAiggC2O3mT0TEYMPamYOfaRo267xR5qHx4DvBdRbxUBpd5Is+RfGoyNg9kOoKMDTY2NCEdpOgqsTjdSdsZJ7Td0l9t3grLHAcVDBftc2dLUWcxGazQ+N6IJyBYtZVfHklszzNgg0f6Y8rHGpqFTagQEaRIJ3YkTJ/DII4/gn//5n9Hb22sAdd9992HVqivMs6GeXvgovDufeBrPff3byGvvMd3tDvov6pU3Gk+2uVpAxmO1sClEKPgRaqIgaLJRu2iPVflM1v0BUsrkxmSnkBWaPkm3nNSS+eqq5y8tWfE4nOgIB9Cb48Knv/EN2OcsxNqd++AurcCcpctQM6sGDgZoD/fDr5nypiEZp+Yah49lyiSL1HhNhIYOFwwtw6EkMGZIyRr6dPb7mrIcj9PLStjhz7MhwqhOtB5NAytTEVM0LGUXtCgUDKH51Ck8+vOf45GfPYITTSfxsY9+FJ8joJYvX260TV9fH4HjgJdgcQtYjz6O5x7+DnIJrBKaXMb/UaUJUBR4TXjVKmAJla6HU3G0xYLoo7aJOvkMr2mSrMzD7IrWuTpAdKZUWnJsnWeeU5gFOX74qYXs0QT8Dhe6gv3oz3Hjsw9/A9PW3IBtjc3YUn8Q7YEQamfPwrJLlqK2oszMuhdZsWZCtIj6IH2WuWf9NmnIpjMuZFM6jCxgDTXHhpb/udLQ98/UwlbaTX54aqyG09cHkmb9UuOnc13UuQbpzZpUtLR2Yee+bejoPQ5bMBhSUOaVkWliGRtLI44+yXLidEbBDmnBRiKlS2nXPhNqfPr7A2hra8PTTz+Nf/u3H/C8HTfedCP+hIC66qqr4Pf50N/dY0w+sebu2SIRM/Niz38+jt8+/I/wdRBYvhyrJ890yysimSx0fA2o2OppLMvvwf6OUyiZWY2a2XVmNkWZP8+svYqq4hU235VZF6aJJ1GQODoFKtojWgOWX1iM8ppqHGhqwNvb30YehaCA5oqfGrK7vx8Brwuf/cbXUXXX3WbybwPj2Ekfce/BwwSrHVVVdVi0cCFm19XwF30u+WlMoxoDCWEqSQ3IS3aHypPXmB5d11ULS1a9W479SDR23U8UWCPHLVI9WOm20aRT6iUfFpjUZFkmu8YRJQMxyY7NRYvFgXDEBICWln7s278Xh4/uQyjWieq6vGxgjRa9Yhl/5s5F9b4TNFZ61GJJ68i+N5u7UKKOHj2KX/ziF/jJT36C1tZW3H777bj33nux6sorUVBUxMpIEFTdyPH4DEAkhQKWM65euiT2PfoYnvlbC1jF1B52Orp2CrhJCwXPaCKGITBrcDjstuFQXzvqli5AWUUptry+Gfl2gpUmZMKlbl2rRrRNWpCs31qiouX2Dpp7TgqCwL10xXIsv3qVAdYrz61HHu3/PI8XvYEgfTA3PkdTsPruuw0wBeYEG5Gm1jbsO3gMO/ccpOYNopbgXHPN1cjPy4HX40I8Gjbd9lpkqc0s3UyrZMgSTubFHPVL5Wx1SE9EfibS8CoF4mzKrn+l0QDLpNdKp+5bT6hU+Du92Y/AJe0kPUHRwPGGVhyglj9y5Ci8PicWLJqB+Ytq0NxW//4AVvbcPZFAMxrpvsAlYB06dAhPPPEEnnzySZw8eRK33XYbPvnJT2L16tXIod/SS5PPRZ+JmWRps1UXQFjycXVpM1s+hieNdS7AElgC1ELHQj2Yd9lSONk6vvbqK8j3+hCIRtBnS5qwBSLtxKSG0+xjYYRDDQP1jWo/GiPIUrjmihW4/rrrcOxEE9ZveMnMpIgRvG5qwE9/6UuY+6EPM04CwOdBksASROwEYEtLN+oPH8cbb+80ZmptzXQsWTgfs2qnMRLNX9Q4lwa8NRNEIkhICVhs+Y0uM82+RNc6jpcmG1gJ1keGBCgac+ZcY1BaJKqkKkY1HAlqpzC9U/W4skqlsNF8shN79+xGc3MTPG4nli5eiJkzp7MBLGBcQWzd+fL7A1hxtvLZJA00FtXX1+Oxxx7D+vXrTQeFevukoT7wgQ8YLRYOhw34lLMItZIGUnOcbgMsUUSahad++gu2cGjcGmsmNVZhYR42bNwAnzogeO6fXoEE43PzVVP5ZIZGwaCvxnA06z2p2e+dnYhSu3p7+jGntg7X3nor+mJR/PrZZ9De2wtPbh6++M2/Q93v/j+qBMSYL3rcxvTVp3ciETYU1G4tfRFs2b4TRw4dMSbmsqWLUMM01NZWUCqYd1uMx/REYf4TsCyzSkemzbILx02TYQpmpyDOssmQBSxLHpL6DA+BpUaEJct76jp3IErchWidHz7UiMbjDWg71YzcXB/mzJ6B2bPqUFqsYZQIHK4En+tB/SFtJnMWwLJwMZA5OeZqyUWZ1n0oZYQ58/U/aQ0JtH5n7mVouPcnk8bSUEqPKk/pO3XqFF5//XW8+OKLVPFHMGvWLHzkIx/BqlWrkJeXdxpQGS2oMahEuuFw8pCZASHTTMBy89kiVuTB59Zh+//+OYqCEZT4c0cFVozNYpDq6EiwE3OXL0FhQS5efHkDkl43PvEnn8ZVn/1joK2FCde7LlYQ8xdjGapYc/1Uk7xGLbd9/To88q1vw9/cBj/veQoKsJymq6e4AOte24RTrMc//fo3MPfue5hwmpksJ3EsLXhSejLjbAQXk0pzuAsHqcH2HzhEIXJjAbVXVWUxaisLkOcXkGKIRkIURf5jupJxmo3U4k4VjJExi2RGvlNE3Jwh2UMbemlZmhlMP5kNClOs1teAqTcQQyM1/ZGjh9Da0sR8+tiwLMaCeXPpllpb1sXiEcbDMrNrD6wwzegdZwcsa7b2ALA2btyIBx980JwPB5TsaxlgSRgl4GrtZWK9kzSWhsoAS9zJVl6AEmnQd/HixSxAv0mzQKWxK51rcNjkUe+le7EywDKdHfwtc81D+6GUleY5cQoVnd1Yll+BAoZxLsAqJRCef2k9ulNx3PeXD2LVfZ/Baz/9KQ69uQ2lHj9clB6rdaXGLC3B6t+/B54Fs7Djl7/Aj772EEppuszKK0J7dy/iLItLrloJW34ujvV04eZP/AE11h1MLQVJ6WCeNSAt60izM4wmZNg2u1tzgfUYW+QeHDh0FE3NzfT5Ipg/uxqzZ1ahpERbAAhUzBJbFofdYwa+k3xGQpuhiZh250qqB3E2Za8+UEq0manxGZn/JMsyHLOhJxDF0RPNqD9wAL1d7SgrLWQjW4O5c2YaX1N7j0RCETPsYgbjqe0mDKx9+/YZR14kodMyhmzKBk9mDCIbWENpLI1yvknaR2mQkAs8O3fuxFtvvWW0lzTWTTfdhGnTphmgKR8CVTawWCumdDLAMqtKFS4vegiSYtr0gV17EXhtK2opoEW+nHMCVllJIZ55YS26CKz7v/plrKTG+s5nPoPNv1qLapZ/guXvtGn3Ww/yZs7AH3/7YdTeci3efvxR/Phvvo7KU72Yl1eCGE07LZLUDPqiuhpMW7QA13/i43CtuY4Jp6AQDFHGb9ecRfpOsWSM6VInhZvA1WwT5ot5crocZsuNYw3NtFyOoImmssvpwqyZMzFrRh1KivLN1hzyv+SYGKBlaYmhc+/ONxErgyhb3ky9UfalqfpoTfQEwjjaeJKNxxH09vehvLQYC+bUYs6sWuTm5ZpGOsryUw9hJEbvltrO5ZAnrcoXsILYN15TUIIox12kVn44YGTMu8w9CZCezZxnU+b6+aKh8Q2lDOh1FFjUAyhT8Nlnn8WxY8ewbNky3HLLLVizZg2qqqpM45AxBc3WzsqbzjPR8LdOpbFc8nijERx/7Fd46hv/AOepDhTStFJ3uyrTJI35N4sYhwIr0Il5yxejlK3l08//FmGagn/0wP1Y/YX78f3P/gl2PLMOpQ437Ey3BD/GlrZw3hzc+3d/g7IPXI4tT/wCP/nbb6K8uQd17ly64JR2xhmmJmoPBeAsLsJtf3gvFtLURXEZkr589Cv5bPviTI6AJJ/JmSTQ2E6mKCcOJ/04NppqqWkNmi02TjS1Y9fu/eilL+eixlKrXlVVRi4gMAkwcrablRaNSaSswIeQ7gz18bLlQT5WPBJFgIDad/AIGk6eQk9/ACVlpaipnY65BFRpgcc0evLN1PGjcTaBy86ycLL8bWx4TFgEFmsO9Qe3Tk7nRUbI3q10NsDKJrVKmoLU2NiI3/72t/j1r39tegSnT5+Ou+66y/hb0mRqXKS5RNI4Lml2AYYFLyNKsyfUI5hDqdz76ON4+m+/A18HW8EcvwGWACX/zOZwmjS4KPSmq55FHTLA6iKwFqG4KAdPrXsevU4bPvOlL2LNF7+An3/pr9DwymaUaBqNfCK+m6CKLJ4zC7f890+h5PIV2P6b3+B7f/1VFLR3odqVAweRbqcvpVnsSUp7e3sbXMXFuOn3fx81H7gWPcXVCOQUmF5Ggwb1+hHw2jZUADM+CNMrkykjDTIV4fAgHImjqakZxxsa0NPbi6rqasycPYsmVBE8mqtoZMyiwVaLOkvU+A7Ukcoym7TNRzalLe8RKbudl7bS72ytlekU1Oylnu6A6eU7frwJ/YEAikqKsWjxIjZmHuTnW8+yKmQBm4ZTQWfil/ZWqk34PDE+aSqAnbs3TQ6wxhLcC01DgTOUht6XBpUvJYAFWNhNTU147rnnDKuHsK6uDjfccIPpKaytrWUF5FstGls+CV2c4NDSiyRbbx/B5YoE08D6JwKrF9Nyco2WUZGaWRMS9mGAddQAayFKiv0GWD0M79N/SWB9/v/FD+jjHn1xE0pdFGpqWXW3x1mzZbNm4uPUaMUrV2LX08/gH7/6NUTYQFTnFTJOmjGxJJIel5nwa2PLrJqrpTM+a80NaC2tQW9OEcKUQk2vUk+fZntI6ar3UTKiv5bg69yaNZK00WfUYkyWV29fP/pYZtqRV81tIc2n4gItsxwo40ETBqhNXMYPH7imDqFs8mnbtywaCjxpz2zKvq9kezza5WMgfNWv6lxmf1dXP9rag2wgU/QRS1BdXYni4ny1eXyGeWCj6KNprAFyjRMqz3ajAdU1r1C13TfNcBYSHQm+00ffc8/kAOt8m3ITpbGAP5zGlWmo6wJXpjNGWksdNwLYnj17jAa7+eabzUz22fQvivILzbvaY30ygVVcKI21Dj0umxl3uvbP78fD//VebH3sGVT6c4x2VG9elHb/NALrgYcfQsXq1ejZuRtPPv44+rs66XDnIUqTLs44gmyGgx1daN2xG6m+PhQU+XHbJ+9FzhV8x1dAH0xpsFNbUZuobhPSVMwYT01JqrqNUOm3Ay5vAYLhGFqpAZtPnTQtvyYm5xcUoLykCF626PpWV4ayx5FEMTlsWWStWB6Zhtan9VOJsmjofS04tZoEi2TKivRcT2+Q6VVduGgZFKKgMJ/poUlHQGkqmCkD4YNHM79FR7U0PBfI1PxoBopan1QqQgukj/XZMznAGs7HejfRWMAazhRU50vG79L7GYDpXDMv1lHQ165dawBWTbPn+muvw+/ceqsxEd3qOWR5yhT0sIIGTMFJAtYXH8SPHvhzHF73EsrcPmjHWibQTHWqmFWHOz7xeyifM4eBhNDV0WFa9ATNVH1n0EHt6igqQPORY3jkm99C4/btqCzOw//466+g5sMfR8Sdg6AWY2mjGiWN5SE/SbUvMTIlxYtGYtIi0d0dw5Fjx9HQ2MAoA3Tyc1A3oxZVlZXwup3w0XYywjksUS8qviwaWl9D62dwQyjtM+T5QVPWeN88nk4sSR0PikNmfFd3Hw4cbsSplnbk+v2YTfO1mOaglvSItMuWiwUhWGngXkvv4yk1BBqIYImk7Ga8T/XHEJmWfjS36DM+kwCs9xqNVbHa6lmkbvmXX34ZL7zwAur37ce0klJcf/31uPX22zB7wXzYaHI5ImF4An3Y9sijeO5b/4KC3ghKPd5RgaVq1HKPAz2tWHjZUhQV+AYD6/7P4ydf+QqOrH8FlQQCm0mTZnWPF08rR+XsGWjtaEdSWwOwcfAQWFFGFmO81951J6pvug4dhw/hO1/4Ig69/iZq2Ur/xcP/EyW/eydiTg+iBGE4moCPoJVZFU/GKCGW2WNjWh1MB4NGa1sPTtDM1DzGKPOZR7Nv5ow6Y07l5uaYnkGjjZinbOkZNMnWoHOissUypNAPR5mpSjoOR9rW+1RbFxuGBoKrhUBKoKKiktZIDaqqSkzD4mE+IhE2tJrOpRrT7AyWiNXT6eBv+qw8S6Wk5QLYu/9NOL785b/62uigEk1G5i9eGgq0SCRirmmoYdGiRbjiiitYGRVoM4PLb2DDxpfQQF/M7fWisrQYbkpY/6HDOPDKG3CFovBrAaHCZJGakAkoBmg6CjJxqXOhIxJAWdU0+Lwu1BPEUZqWl69ZjbrLVuCZn/0M2198DfH+XrS1tKGjvR0dba1GY/T29WDbm2+gob4ejQcOoPHgIdTv3oemEycxb8kSVF6+HNHubry+7gV00X8s8nlxzQ3Xwzdvnul40TQpNSZe+m+iqIYGXJYPpQV9J5s7sG//IWrrvWhvbUF5cQHmz5lhpjtVV5bDTRXnYTgaUojrIw1piyYjRUaSlE2T1czJRJgqSeU2DEvHarMXHYdjtmjGFC4rK0VBvp+/EyynBnIjNXGv8Z9z/SwHlomyYbLCZ6StjMbiT12URlNnj7RWW/uJKWCdDQ0FlkhmosxF9R7m5uZi4YKFuHLVKpSXl+HkqWa8vGkTXnn1VbTTL6vz+9Df0ITGrTuR6ulDrtszLmCFWamXXXMNZlx1JfZseg30vFFdPg3u/Fz4CwuoMfJRXlUBf1mRWUVcVpCPsuJilJZOQ2FJGXKLy3Dp6jUovmQpYl09eGvtevSePAW/24Grb7gOOfPn0WSkz0BQSExk+kqECA0zV+54Ywd27t6LHTt2oL+/h3ktxaKFczF3nrRUOXJy1OFDAWS+zHgetZWyY1cvoHoS02yJ41CZsvI9PpK0Z4eZzbqrGBX+mSyfSWN7SnQhy7C0tJSmYClftaGJdacGso/ayuX1wZ+rbndqQDNdS3EyZOZHz1rAkl6PEVhN5m6ahktUNk9RhiRwatEzHRwCg2zyGfRr7rr7bjz00NfxwAMPoKamBr9+8kl86S+/jCefeoqapNf4OzKqTKWa0Iz7a84GV3j6TEdVnPmdrgtqDy/NOh8rW1usyQTLoeklzs3PM3GUlpXxtx++HLIvh9o1j0DQIDdNR5vmArqYfjflSULCvMiUYtCab0hbj/ExjzQJ5U2caG7F+pfeNJr45MkmTKsow4pLl1FTr8DMWbUMX6tn1X0dNSynP6YOCgZlp5bNACrDg0l5Op+UKbuR/qk+CRCmV72ATqeNJuA0rLziMqxZfbVpLOoP7sfLbCTffHMPOjuDVqWosSErk6b82ARpSpcGWmw8d3z5L//6a8ytScD4+b1F6uUcjTPPqEND4DJHCkyKLbTO86gpZs2ZjSuuWoVFc+cg3N6Gpj37EG1qxjQKuYfvSGOZFcNWaDSXeE6wKnitFo6z5W+L9KOkUmBw48DRw4jRNFt13fWoXbYM63/5BA5s3oJEXz+62lvR09mB7p4uM6alFB6uP0AzrR30oSkM3fQj2tDSrc6QFahYthy9Hd14Ze06tDUcQ6HHjmtvvgmeBZcgDDdidh8iSScamlqxZdt2mnzUUH2dmFFXjcWL5uGSSxahiH6ZtJM6AlwyH7WGKZ0XqzHQKf/oKLWlXsE0m1uDeLAOm0y2KJMmHQezdZd1yDoR5NULKvPVTbBpXmDN9EoUFPpNR0dPdwiHDx83QwpqvLw0oUF/S2Cya65gSrP8w2hpPW7CUozj5yk6g7RmShVVSSf45ltuwf1/9gBu/53bzZQYq0dLImiJoUWZc6sFNUwNon/6SqBVzKp+sn5QPegYo6Ot6VOxcITCEEWEHKZZE4tqz3hpjSRCBLtmcoRi6grWlCSZLDJajGdinPdEioLlyaeXnodQwoWDR5qx9oVNWLfhVTTTf5s9eyauufoKrFq5AtOrpxFQJglkq0FQL5w0uFjayjDjUu+ZxvQG53UojXZvcsgqUwJpBBbpr8Up+sTURponSRbAqtm4rVi2BAsWzEVhUQFNxCZsfPkVbNu2A6GgpjfxTZahTVPU4ERefnHGx5oAWel6X5PRZDyeNnIobBJmzaoo8PuRQ9vdSQE9+uZWaFA2l6acmf4kLaeD3lfrqZadR7X9CZok2peilGZJDjXWIU0MZsVdec1qVNHHatu3D34+O7O6GnUz6lBbRz+HPH/RItTOnAF/Xh4qKitRWVWNCn1zq64GFXxuKbVowbzZCHR34o11a9Fx4iT8OQVYseZmtCa92LB9H/azVY7GUgTUbCy7ZAlmz6yh76FOGPVeWmZvJs0CuzUbw/o9lHVdzzDxKpmLgoz2SqdddakduaSh8unLVhFkBfn5CAbCOHGiGQ0NJ4wh6PXnIy+3AFFqeqcmWafDmqJJJAmUOjV8OTSpwjQPAgFqFmsQ9FzH/DLiOEg0GVaA4fYE+tEbDqGrrw+dvT3oEvO8W7MfgkHDPf396OczWoofjIQQjspcoTmmni1qFMG4vLIa+wimTW+8xXD6MIuAuubqq3DFZQtRU1UMP00e44lRCxphs+buWEyhk88pE3h41qyKi4u0aU9mewVpY4edmohHlVlerht1tZW4ds3VuGrVSjZKedi2fRfWrnsZW3ceA9tNuDyFU8A6GxraCg9ldV4MxzLJ5IMQTfwvJ57CyUobSpYZJRPKMqeGkgAVowaJaIoNzS8J857DB7Bpy1bs3LcX23fuYOW+jbd37sS++v2oP3QA23fswJatW83xra3bsX37TuzauRttp1pMetQl7mbta/BTDrrH58JS+k633Hw9rlq5ANMrc+GVuaf0M15mxPgfYglNhtXnYbajTqf9TDajsxcVqZ4yKxjMvMiUg2Wl/R61LQF9qWSQJmIUM+uq8MEbr8F19HsLCoqx9a2dWL9+k1kQOQWsd4g0jWe4qVNjkqxDMq0vQ2b7aYIrr7wUOdOKkMzzw15SAntpmeFobh6iOblwlJXDU1kFD/08L5k1D2chn/fqQ95JRJUe+oJaadzceAxLF8zGZZddguppfmjmnVOaiBrNaTQbTT2mYTgepEnfozTII2NZSMsPMDCNZvK116zCVVeuRL4/Bw3HtEtTIMzimQCp1lX772OSdjLCny4GzXrWWiyz0JGtvTcawd7HfoknH/6WWZqvKU0OzZagFjPWlARXmk/mBo+aOqPNNuu7W7GIwl5WlI9n1z2PPpok9/7Fg7j2K1/CyV1vw97fByexSt1DKae5QvQ5PFqQ6DbzFakCzf7vKQIoGonQDIyifEYtcqZX48TBQ/jXBx7Asc2vo4q+w8P/8gN4brwdMU8OtaOlaTTpnKk0HRwj1bB1Z6S7FuisCbzi4Wj09y88KW0ZKyJbD6lwNCxh+dNOj2bNwHyps7u/ZbI01kiF9j6htFyYziHr1JBKRe2bSrm4phoFtdUIUNtEaIZp8xa1+ALjgAawRvPNLGrTMkqs9awdCafbTKCNqo7JpfSLKpYuQ+my5ShZvBQlS3hOLpg9H97qWhTPWYDSBUtQvHAJShYsROUly1C7/DL4KqqRcGmpvWZSuIlHl5ldbg0JxxEL9kIf83FQUzmYBit92S30YE7ncEQWMYj03+H4YqBMWpVfkWBDNkolScs8imQswisJ+NgglhUXmCcmRqY1Eg0t0vcODx3gPIPVIcGj2T+P5zrKNneweLVwMWJLomLlclxx939Bb34OjnR3mo+/aY9AD1WWhyCTi2/TYDO1ioNNn+YSammHlmD0J+3oJvfbKPJaHx/S5jUeRMPqP/Qg7vIhatdGMAQe/YCE02s4ZtcehHaEU3ZEHR5E3LkIpjQ9R59gcCJOzRSOUpsxpSE1t7EgnFKBqTBlJkqZoeAYbUox0njNMKzZ37qvzo2RWEI5+j9LbN+9rMFg0+SRreZOMy1SZsCCFonHCScbTJtN41nU9poCxjsTJ9NUv4fZCMconH7GKvSBazKB1K6HZdo5gBW33YzVH/swOlx27GhuxKlwwExTCtFctLud8OR44aYpp/VDdMgMyLTEUGaix0XNwtCLPQSGzw9HbgHcZJs/10y0dbNiPWSvmJJumOe6rgFmhZvDdzWdysl70/hOMe/lUBtJK2UmqVqClBZ30yKLlItM7gazntZj6VyfwRc/ZXIiqGTnSHlnY0QgmTIwZZSlwSfsY70PaKzNT0bb6VdbakWSQXgpfTnUIGjvxrZfPonf/Pjf0ba3HvkU6CIJPIGjybleM/ibQjAZQ2OgC7WL5qOougLrXtqASDyBa2+8CStXX0MtpGUpKZqHtPFNV/5IabS+NqLNUlJJs7uD8QdC7a146Rc/R9PBE6ioKsOD//Rd+lg3Iujx8h2KCFtdzbY3AuQUhEbKI1tqDY6OEL/eeqf3uHhHSRpbFgvL2azVYo4jMWr8KWCNTRMDVgLBeAA51Ei2/hByJKx2Gn4NTTi4aTNefvppHN6xA8m+fqSCYTN4nO/1wuFxoSsWwvS5s1BaUYbn1j4nw9JoL+3IKh9NX8qP0RdSN/1YpF5F7ZwkIGjKVEk+tR7NTO33kltcji/8r3+Gj6DtcwtYyhMdcsVFQbFRs41MU8CaAtZ5otGAp6JOaC4ZQaDxeHUImO6jBFl4oLYJ7t2Dt197Ddte3YzOpmacamxEV1en+TDCwsULMXvmDDz3m2dR5PcRHLTh49RQjFKVaKY8GfEdIJe+J3yaaIZGNMhJPKfxpy0IlWSzoJ1Hh78AX/n+DzHthg8ikJtLt4pmKNNlwMj3lbuRc2gBa7QnLnYBG71hVe6sOjD/WB9TwJokGh1YFH6NBfHcbMki842QsBFo2smWNhcgn0r7PHR0o7v+ABLRCBoajqP+0EEGkERZQREO7dtvPt6tTg4pkIw9r3/apsyqYIsG75vH6/KjNIs9rbGsfRAZguYTCmQ5ubjl43+AgktWoI+tryZLaKa35gHqDWuvh5FoCliZejD/poA1eTQ6sKiUJNg8euhPSdAjBIX+mck+vBclkDzq9jbw4xtaoazZDmbfOoad4pNavs5KM/f1WBpYhkf1sfQMSWAzJqueYwAK13wPVcgCIokEbAXFiBFYWlOkwWybQ02BgJXkI+lwzqApYInHByxToROgdI/TuOldHr8GdUcitfXyMTROpU5ukbZ11Jaeqi9N8NRkXWkP0MTTp4B6A/3w0ezTzPD83ELEQlHhzywzoUdlBm+l8TI7HymOEbPIeOMMV1pM06sEbZfTTaA7CGxqMb4XiQYQJZC8+YyLIE3RBDUfBndQk/J9bbpsNN+wdDbA4rsj3x6dTLTjfTlDI6U9i0aJYrT6tUhGuRWLlu1H6BuPDazTQnUWiRuW0okar3BfBPFnm16iwfPjKHga6+LrRtGQFJIRNh2ZrMze70qhYeMMW0+YVPNEszOEAvMxbl6wcpP2f8zr1pWhpPBP6xs9Ysw6ayjAdIaYuLWcRD2M1nPW34x3pTOru314GgtY6ZyeLsdzJKYzk4rxEXNhgDFy/GOJxtD6HbzLlMIVsFRCLDkCK5bQtj1nReMsFEMTeTdD7/b4dT+bs0iCbIR58F2Ji/lnBEd3LUG2RNiqJEvEpZes3qYMGDPPmopMP2cJ3nCs9+3W7A3+1gphswaLtwRRuV0SLCvkgfAnlzLhjocm8q5FVmkNLpUMnx0pDdk8HA3cYxGbGpmiKZqiCVMGWAn09nZPAWuKpmhyiKCyyQVIoLu7/Wx9rNEfGZuodMcyZEeiiz1+vpox9TKU2Q5MpGRZXtMAGX/qNFnxmxn0NOHMTHjTXW6RSZ7GxLIoO3yZfZGExrv0yzKJzApZvmenb2Q6QFIaANBmlJbRlPl4nvW0uvetNGRI66wGSOas4rOePZPSJuxIt8ci86penkAAhkem8YqGRaoX5pC+leYOpmxx7KvfOaWxzgfF4/HTfDZrsPRMNp9vEjjVU5nZEXYo6Vo2a/WztZ7M4ikajlSOanBYf9RcU8B6H5B6KTMbvgi42g9Re/7FCPyh+6aLMvcttvY5n6KxKAMsi985U3A0Gk0XX+j4DckostKhR63U6B2ZQVpUkF5lm3Vdz5gePmNeZUKw4jGbWprnk8Yky7yjnju9oy51Kx69odZPy8E17qWvWvC+w2nuaw8GhapNJK1QNFM9ZRYoWuG5jHlnNn/hFSsu/jEzNXRqIqGKjZokaJ2YLmlmvLmggWlztMAns1Lpi6dNQT1lkXonB34NJuWCkYx0+yxopO2hB2i0+8qgyfiIZO6OO33MuanjOMsuanjfgZ3vFLBGo3SORiq8Cx0/yZpiaql5CYlmlKvbWh+x1tJ1TyrCWxRWDeRGY+YjZgktSuRb/uIis4e70+s1WzWLBBY32RkLI97bRw4yVBeCdjdSbg+KyksRjIbg8DjhdsbhTHQjzOe6WiO8VoD8mjqmQTM3QgyLKdIaK55pe81QewuSna3w5xXBMW0W4gRhf0cTEv19cMcUi3Khb+YSItrshblz0Xpx5eUhpIm/fd2wBbrgdXjgcBVQ07FcYswXwRbWgkifH4WlZWaTmBSvm01LyZYPNxxNBrDSJ8NSJuCRIpgE+TENzUike2pYBKwwOYIDh/e9G4AlYuIuGLBEI8dvio33JMDQV9X5L2YK2g5n0gmvph5FeoC+HuzauAlvb9mGtrZ2s4usO78ItYuXYP6VqzBryWLzwe1UPAJvLIRI2ykc3fYWjuzYhfbjJxGOMFxXLkpnzMSSVZdjzvJlsBcUMJ4gXI4uvPrLJ/DU4xuw6LJr8fsPPIiIQ5oywPspROJOaikHvAT47pc3YP3//iFmL1iKa/7b52Hz+fDMj/4XmnZsQ0HSBR+1ZTQRILiseYLKtzPpwO333IPCRXPw00d/gtDxgyh05VBJ5iJK8UjSHNReGW3UfKVz5uKz9/85fLl5Bljyv1JOxwUElkiBjxTBJMjPWMBiA5uiX5WyhchRHDl28Cz2FZxAgZw9jVIwFzj+zB2jGVjDwp8ERUaSV4JJPwV9ndj/xBN4+kf/ga4Dh+Du7wY6OxBsasbOLdtxqieE/IppKK4ooJbqQeLofux64hd4/d9/gqPr16Nt9070HjyA/gP1OLVrBw5s30owuVA9dzHcbu17HsK+p57Ez374OPwuPz744Y8ZjamU6BiixlGb6aXWrN/4Ejb/+yPw0Yybd8PNfCSJ7T/7Pzj49JPA4UOIHqo38QQOHkag/jDjPYKeYydwyfw5KK8owrM/+zFOvbwV7oZD6N+9D2HeDx05jo7GJuw7egS9BNPtd30I8HiMFtN3wEYousF0Ns+MQGO/qicmEMFYRAtlZErHLfSru52WQF+gdwpYFo0cv7ljCk2zHyin6ebTKd9Kk1plAu7djSe+/wOcOtmOj/3eJ3DHJz+Oq6+/DvNrZuJESwd2HG5ERe10LFowHa5oP3Y+9jg2/vTn6G04iRlV03HpyiuwZOlSLJg5C4lQECePHUE9Bb9q/jJUzJ3NyIJof/01vP3KVsycuRCr7/kYkUQosRLlQ8k0lb/lTUbRfegAGjZtQnVVDRbcfDty8vPh62nDnLJCLFs4H5UlhUj2d2FGZSUuvXQVll9xNWrmLcCKa1fDnuvEto0voqC3HdevuBQrV16DeQsvwYLlKzDjkmUoXTAfcy+9DIuvuILxa+FkEm4XjdpBU7hGoAnU49ivjlx/k0JjAcvcloxQQsj9gb4pYFk0SvwqMFLaajKkrYfNtmAqSJmChw5h/VPPoNudi4U3fRBVa64G5s1F7rxFWDhrLqrnLMDc2TNRVp6LJDXTpv/zGE7WN2LGiqtx+6fvw/wPfQhVt96Cqssvx9I5s9HbfBL1e/fTp8nFyg9cCRTbcOSlF7Bz8y7MmL0IV374o6AdaGbNazJvPKH9MegrpcJo3LcTuzasR8m0Csy79mbk1dUaUM+4YTUqbr4OTvptb21/G/7y6bjpT7+EaXd8GHUf+ACwZBECnW3YuPYF+mj9+Nin/geKPvU5lF5/E8qvvgq1112LFR+8hcC6HC76Weq0ceurKQmaQDwfwZIeoAnU49iv6okJRDAWjQosioDKgDVh1rGxTrT19lR3+xgkgdEEVfFA5UmQ1DoRVOJ8P0oL89B5qhG//sWj+Jf/+U1seuwJJFtaUbhiBa69527MuXyFMRujTS0ItffDX1CJ5bffiaIbbyUIFwElZcDs2XDcfivWXL8GZTleNO2nKdbYaOLT53XUXa7OBpGVEgv0uiJTUPBXBQtu0q9mgq0eLGPY5eRpJYiQux0OBD0+oKgcqKgBqqcz/mKEXC71P6I/GKES3ouTG17C1nUv4LWNG/EyTcxn1j6Hk6dOweE0C14YnZqbKRpwAlXYdvjY8EwB6yxo4MMEKjrTjUETjH/tNIEcBFZNGW69eTWuKPcjuX0zjv7yCaz97r/i+9/6Dp76yU+wf9/b9MM6gEgMoeYONLV0IZJXDM/8hUBhodE4EZqVZjNOrwfFVRVmKX/XiQZ0njzB2AgXpwv6eLd2f1ICTHIIbpmAMkudwjlbS32SND3d1rynB/viMQQ1HhULo18fR+A1bS7Nx6T20C/Nl4gikIrA5kqYXaJe/s0T+NnffQO//vu/xQv/+G08+c1/wL///d9j1+ubYaN2jDNs8xFzBjOmtnpPk6QhwyoIfezbWll3FnShS+7CxZ9dbEpH5tObaplMB4KmDxUUoOrDd+Nj/+0PCLDrsXB6JeItzdi+YR0e+cH38KPv/hPe3rwZiEaRDIfNp3Ycfh9ifi9iOR6zXENfnY8oLP33sWKcNiSCASQCAUZOf87uNGNYZuo0D1aaDJrMmQUkjTJlQJU0DYLpLec7cWop+UUGCHpbRarlEGKCVmNUAos6I6TMBE5EIwh3dsEeIRi1/3w4RNy7ddPEoIZA2NR5JkVn8vkmZWQsOptnRqPh8pXhAVIskg5tK8ciGoNON0fWa8PzeaQLHL8KSnPhrPlwVkE6Uy5qCApYnEKZpFmUVwQsvgSl//VerPmLL+AP/+LP8MCffw4fvfFKzHGlcGLT69i1/mXaWH3IK8yFn69G+jsRDPYwSPXmAT1Np8xYE7wudAd7EYqHkOvzolBSnrBTMTJu4UgAIUUJTn3gIBKPIpKIIZqMUntaA8o2ajKni8YhH41I6s2Asthh1noZ35AmbFy9WDIvGTZzBJfTR2C5kHC5cds9H8WfPfQwHvzWt3Hfww/jc9/4Oh546OtYuJwmLcnO55x8Tp8SEgmsmX8a4M5my0cZJ7P+lauRWXFnjsOxwhENCXcQj0bMEfMwGg9QWlaSGYN9LJJwj8TvBA0Xb4bfEcqOR5XoMKwBYknvjldex6Pf+wF27TlIf2khbHT0Sz90B26671P4zMfuxnSfD90nmoBQAO7yIkwrK0Cw9QQOvPEqUq0ngXAAW575DR7/7nex7z/+A5tfXI+unh6U19Ugb/ZMItlp9v7z0zz0mX5+wJPjQlFBHkoKClFeXGK+2AinB0mCJPPhAqVaMNQwsNnzgppLswSsTTYpMBJ4aigz6VZakyzwRRhXzbIVsN99D8o+9BEUfeguzLnnLlx9539B3fIlBuAxajP1tGsWifU6jyOwoeHq7mzY5GIsHouGeyfDk0EWfC1m2bMMzw5Y73PKrgKZUjGWmvZlN0QfJbinHk997//Hj3/4M+zff5ymYQlQUQGU5cPlY0EnIma3VG2xjtnTsXjRHHiD3dj++M/xwr/+E5o3/BaelgY0rl2LZ/+/7+LI5reQm5OLRdevYThlQLCfLWPcfAW/t+kQeja9iEObXsC+V17E/k0bUf/KqzixbTfoLMFp81ObSqPa4aI2dREEbp670w2raRZkWhI8Vhasll/CYQ1y6mN1URw/cgx4awd6t2xDy8YX0fjmK9i9jZp3yxvo7GylH8HWWkvQ6ZtZLbda9mHY7LPx/iInLYR3yYfnFMg4Azrf8Wdd1qmEUONG6oVza/wmEUcNBf7o7j3YumMXjh45guajh9H4xmacWL8Ozz6zFs29Cay69RbMWXMZzcYcVNJf6jzegGOHDuD47p3Yv+V1dB47CrR3IdjYhFRvGJWzZ+GDf3wf/DNriYwojry0AUe3bIeL8W3dugWbXliL19Y+i9efX48tL76M1oaTWLZkCSL0iXatew4VlTWYe8PtcJWWIsl39H1chyOOFsa5d8NG5OcWY+maW+EoKacPFoU+kN/TfBRvvfAsYifa0NF0Ai9v2oJnn12LVzeuw4YXX8Bvnn8eO/buweWrVqG4tIQuY5imHsuAms6aLW+xei8HwCWzMaM/LwxNOOYxAxjceCjfUxrrLGhASCyWOWX2UZCZoxJcPA9/+kefwMdXLoJ926t48x//Ac8+/A/Y8Nha+jh+3PiJe7H09juAImoxTy5wzRrcfd9/xx3USPNycxA92YSOQ4fhDUcxt2o66ipK0N3Whmd++Riadu1gxcqgs4PKAaFTp9Dx5hbEt26HY8cegGDu2vwmevfXI9EXoIkWRx+PgWAAkXC/MdOiyYhsNla/y3xxMBC304fLiIM+qRpm8NSI8QjioT74eKPnSCO6d7wBHNiD2K69COzYh8699Ti2azeisTBSbjtiVHtyM03vIMGU4UEfnjOgem+T9sTIZjUyY88VHIvSvVITI9a+safHQec5fl22dnKVrtKRfynoGiD2SmDjFEqxPptDoU/UH0agowfdvUG4CouRM3MuClasQqo4HwlXGM5ogLYkW/neXuBEI0BQdR89ht6+EIoLS5E7vYqmXzd+8fNH8fjuY/iTr/4Vrvvje3DqmSfRvnUfymwes02a0kK9QG3jQDjlhr18GmpvWIO+lhM4+eKzKJ5WieKb7kCcx1gqAheBYEtG0bF/H05u2IDCnELMXH0rbNMqEPQk4fUBfU0HcXjDWpQxH4W0dWPII+w85suGPUToEWq+KDXVlb/7u3AXFSIejxFIhKvZzWmg/PSFx2yyim+c9TsJNHrMY8kPG1MjYyOTaWSzSPMnp4BlaOT4ddnaRUnqneDiBXUECFgOzWrXkKqTDwUJLC2zcOdQRai3jbe0fsNFobO5EGKrbneQeXTEk7BH1YvH+1rYaNecc4ZBAbacHwJ1Xz1ef3UXLr3hRrjnU9P19VDbFbLW+I7piSNrDE2UYBxaRaxPNKqnT1veap2VKxcBtqA2e8x8CEH+oFvjWTLfdJ8gDbk9ZkIv9RZcNAnz9W5Us/VVHkSbuj9cPNf7powYB4EU0ldRqJHUO+mgHZn5Ar1I1wfIGtged/1OAo0e81jyc0GBJRpvMOlEjbfgz3P8upytsTTTXfvxWSunopS/BPpTLEgKdl4sRaxQyJ10WNRqUwbNWE86aXEKrGYt6NtUyUgEOaoQgUQOjmnl+WA8pN4GIELBD/K+l0D1JMyEV5t6TSIClUgAErD4TkKAYorcTso/35XNyHCj6j73ellE/M10uAhgu7Ql+B6BkXJ7EdYYFgGu2e6Cl5ay+AV4BsOEkZVGAs1MBnYiSVMzmTJNjAGbgGVj2rNL//TMjDRZPdJ8/gLR6DFnUp6dg8FkAWvk+2cCKzEJwBKNgegxaaKt2XmMf/AtS2PpkmUWsjWjBCY0A4K/XLwkhZO5q0ZfA68ZV1bz68w9XleSzUReHhWiBFUTajW469DCQhMOBZTXtMGnwnHwRbMfoMJhADIFTZr4V72V6qlUSB4edVUDw3oP1JJ6RncVn0PzG0lm4Ng8o/etsBxEgVPalT+tdFup01G5FOujDCJdNTEpjiySHzqIGIfef7eSlb+RaSxgnZFfAP8XUKezqG+vhgsAAAAASUVORK5CYII=;" vertex="1" parent="1">
                    <mxGeometry x="470" y="260" width="214" height="90" as="geometry"/>
                </mxCell>
                <mxCell id="77" value="&amp;lt;&amp;lt;ABSTRACT&amp;gt;&amp;gt;&lt;br&gt;DataHelper" style="rounded=1;whiteSpace=wrap;html=1;fillColor=#6d8764;fontColor=#ffffff;strokeColor=#3A5431;" vertex="1" parent="1">
                    <mxGeometry x="684" y="275" width="120" height="60" as="geometry"/>
                </mxCell>
                <mxCell id="82" style="edgeStyle=none;html=1;entryX=0.75;entryY=0;entryDx=0;entryDy=0;strokeWidth=1;" edge="1" parent="1" source="78" target="77">
                    <mxGeometry relative="1" as="geometry"/>
                </mxCell>
                <mxCell id="78" value="IABot" style="rounded=1;whiteSpace=wrap;html=1;fillColor=#647687;fontColor=#ffffff;strokeColor=#314354;" vertex="1" parent="1">
                    <mxGeometry x="890" y="140" width="120" height="60" as="geometry"/>
                </mxCell>
                <mxCell id="83" style="edgeStyle=none;html=1;entryX=1;entryY=0.25;entryDx=0;entryDy=0;strokeWidth=1;" edge="1" parent="1" source="80" target="77">
                    <mxGeometry relative="1" as="geometry"/>
                </mxCell>
                <mxCell id="80" value="ExoBot" style="rounded=1;whiteSpace=wrap;html=1;fillColor=#fa6800;fontColor=#000000;strokeColor=#C73500;" vertex="1" parent="1">
                    <mxGeometry x="890" y="230" width="120" height="60" as="geometry"/>
                </mxCell>
                <mxCell id="84" style="edgeStyle=none;html=1;entryX=1;entryY=1;entryDx=0;entryDy=0;strokeWidth=1;" edge="1" parent="1" source="81" target="77">
                    <mxGeometry relative="1" as="geometry"/>
                </mxCell>
                <mxCell id="81" value="Persona" style="rounded=1;whiteSpace=wrap;html=1;fillColor=#a0522d;fontColor=#ffffff;strokeColor=#6D1F00;" vertex="1" parent="1">
                    <mxGeometry x="890" y="410" width="120" height="60" as="geometry"/>
                </mxCell>
                <mxCell id="85" value="&lt;font style=&quot;background-color: rgb(255, 255, 255);&quot; color=&quot;#000000&quot;&gt;IDAO&lt;/font&gt;" style="rounded=1;whiteSpace=wrap;html=1;fillColor=#fad9d5;strokeColor=#ae4132;" vertex="1" parent="1">
                    <mxGeometry x="890" y="70" width="120" height="60" as="geometry"/>
                </mxCell>
                <mxCell id="86" value="IDAO" style="html=1;verticalAlign=bottom;labelBackgroundColor=none;startArrow=oval;startFill=0;startSize=8;endArrow=none;strokeWidth=1;entryX=1;entryY=0.5;entryDx=0;entryDy=0;" edge="1" parent="1" target="78">
                    <mxGeometry x="-1" y="20" relative="1" as="geometry">
                        <mxPoint x="1070" y="170" as="sourcePoint"/>
                        <mxPoint x="1180" y="240" as="targetPoint"/>
                        <mxPoint as="offset"/>
                    </mxGeometry>
                </mxCell>
                <mxCell id="88" value="IDAO" style="html=1;verticalAlign=bottom;labelBackgroundColor=none;startArrow=oval;startFill=0;startSize=8;endArrow=none;strokeWidth=1;entryX=1;entryY=0.5;entryDx=0;entryDy=0;" edge="1" parent="1" target="80">
                    <mxGeometry x="-1" y="20" relative="1" as="geometry">
                        <mxPoint x="1060" y="260" as="sourcePoint"/>
                        <mxPoint x="980" y="190" as="targetPoint"/>
                        <mxPoint as="offset"/>
                    </mxGeometry>
                </mxCell>
                <mxCell id="89" value="IDAO" style="html=1;verticalAlign=bottom;labelBackgroundColor=none;startArrow=oval;startFill=0;startSize=8;endArrow=none;strokeWidth=1;entryX=1;entryY=0.5;entryDx=0;entryDy=0;" edge="1" parent="1" target="81">
                    <mxGeometry x="-1" y="20" relative="1" as="geometry">
                        <mxPoint x="1040" y="440" as="sourcePoint"/>
                        <mxPoint x="990" y="200" as="targetPoint"/>
                        <mxPoint as="offset"/>
                    </mxGeometry>
                </mxCell>
                <mxCell id="92" value="&lt;font color=&quot;#ffffff&quot;&gt;CRUD&lt;/font&gt;" style="text;html=1;align=center;verticalAlign=middle;resizable=0;points=[];autosize=1;strokeColor=none;fillColor=none;fontColor=#000000;" vertex="1" parent="1">
                    <mxGeometry x="1020" y="85" width="60" height="30" as="geometry"/>
                </mxCell>
                <mxCell id="95" style="edgeStyle=none;html=1;entryX=1;entryY=0.75;entryDx=0;entryDy=0;strokeWidth=1;fontColor=#FFFFFF;" edge="1" parent="1" source="94" target="77">
                    <mxGeometry relative="1" as="geometry"/>
                </mxCell>
                <mxCell id="94" value="Sexo" style="rounded=1;whiteSpace=wrap;html=1;fillColor=#008a00;strokeColor=#005700;fontColor=#ffffff;" vertex="1" parent="1">
                    <mxGeometry x="890" y="310" width="120" height="60" as="geometry"/>
                </mxCell>
                <mxCell id="97" value="IDAO" style="html=1;verticalAlign=bottom;labelBackgroundColor=none;startArrow=oval;startFill=0;startSize=8;endArrow=none;strokeWidth=1;entryX=1;entryY=0.5;entryDx=0;entryDy=0;" edge="1" parent="1" target="94">
                    <mxGeometry x="-1" y="20" relative="1" as="geometry">
                        <mxPoint x="1070" y="340" as="sourcePoint"/>
                        <mxPoint x="1020" y="270" as="targetPoint"/>
                        <mxPoint as="offset"/>
                    </mxGeometry>
                </mxCell>
                <mxCell id="98" value="Catalogo" style="shape=table;startSize=30;container=1;collapsible=1;childLayout=tableLayout;fixedRows=1;rowLines=0;fontStyle=1;align=center;resizeLast=1;labelBackgroundColor=none;fontColor=#FFFFFF;" vertex="1" parent="1">
                    <mxGeometry x="-380" y="350" width="180" height="150" as="geometry"/>
                </mxCell>
                <mxCell id="99" value="" style="shape=tableRow;horizontal=0;startSize=0;swimlaneHead=0;swimlaneBody=0;fillColor=none;collapsible=0;dropTarget=0;points=[[0,0.5],[1,0.5]];portConstraint=eastwest;top=0;left=0;right=0;bottom=0;labelBackgroundColor=none;fontColor=#FFFFFF;" vertex="1" parent="98">
                    <mxGeometry y="30" width="180" height="30" as="geometry"/>
                </mxCell>
                <mxCell id="100" value="PK" style="shape=partialRectangle;connectable=0;fillColor=none;top=0;left=0;bottom=0;right=0;fontStyle=1;overflow=hidden;labelBackgroundColor=none;fontColor=#FFFFFF;" vertex="1" parent="99">
                    <mxGeometry width="60" height="30" as="geometry">
                        <mxRectangle width="60" height="30" as="alternateBounds"/>
                    </mxGeometry>
                </mxCell>
                <mxCell id="101" value="IdCatalogo" style="shape=partialRectangle;connectable=0;fillColor=none;top=0;left=0;bottom=0;right=0;align=left;spacingLeft=6;fontStyle=5;overflow=hidden;labelBackgroundColor=none;fontColor=#FFFFFF;" vertex="1" parent="99">
                    <mxGeometry x="60" width="120" height="30" as="geometry">
                        <mxRectangle width="120" height="30" as="alternateBounds"/>
                    </mxGeometry>
                </mxCell>
                <mxCell id="102" value="" style="shape=tableRow;horizontal=0;startSize=0;swimlaneHead=0;swimlaneBody=0;fillColor=none;collapsible=0;dropTarget=0;points=[[0,0.5],[1,0.5]];portConstraint=eastwest;top=0;left=0;right=0;bottom=1;labelBackgroundColor=none;fontColor=#FFFFFF;" vertex="1" parent="98">
                    <mxGeometry y="60" width="180" height="30" as="geometry"/>
                </mxCell>
                <mxCell id="103" value="FK" style="shape=partialRectangle;connectable=0;fillColor=none;top=0;left=0;bottom=0;right=0;fontStyle=1;overflow=hidden;labelBackgroundColor=none;fontColor=#FFFFFF;" vertex="1" parent="102">
                    <mxGeometry width="60" height="30" as="geometry">
                        <mxRectangle width="60" height="30" as="alternateBounds"/>
                    </mxGeometry>
                </mxCell>
                <mxCell id="104" value="IdCatalogoTipo" style="shape=partialRectangle;connectable=0;fillColor=none;top=0;left=0;bottom=0;right=0;align=left;spacingLeft=6;fontStyle=5;overflow=hidden;labelBackgroundColor=none;fontColor=#FFFFFF;" vertex="1" parent="102">
                    <mxGeometry x="60" width="120" height="30" as="geometry">
                        <mxRectangle width="120" height="30" as="alternateBounds"/>
                    </mxGeometry>
                </mxCell>
                <mxCell id="105" value="" style="shape=tableRow;horizontal=0;startSize=0;swimlaneHead=0;swimlaneBody=0;fillColor=none;collapsible=0;dropTarget=0;points=[[0,0.5],[1,0.5]];portConstraint=eastwest;top=0;left=0;right=0;bottom=0;labelBackgroundColor=none;fontColor=#FFFFFF;" vertex="1" parent="98">
                    <mxGeometry y="90" width="180" height="30" as="geometry"/>
                </mxCell>
                <mxCell id="106" value="" style="shape=partialRectangle;connectable=0;fillColor=none;top=0;left=0;bottom=0;right=0;editable=1;overflow=hidden;labelBackgroundColor=none;fontColor=#FFFFFF;" vertex="1" parent="105">
                    <mxGeometry width="60" height="30" as="geometry">
                        <mxRectangle width="60" height="30" as="alternateBounds"/>
                    </mxGeometry>
                </mxCell>
                <mxCell id="107" value="Nombre" style="shape=partialRectangle;connectable=0;fillColor=none;top=0;left=0;bottom=0;right=0;align=left;spacingLeft=6;overflow=hidden;labelBackgroundColor=none;fontColor=#FFFFFF;" vertex="1" parent="105">
                    <mxGeometry x="60" width="120" height="30" as="geometry">
                        <mxRectangle width="120" height="30" as="alternateBounds"/>
                    </mxGeometry>
                </mxCell>
                <mxCell id="108" value="" style="shape=tableRow;horizontal=0;startSize=0;swimlaneHead=0;swimlaneBody=0;fillColor=none;collapsible=0;dropTarget=0;points=[[0,0.5],[1,0.5]];portConstraint=eastwest;top=0;left=0;right=0;bottom=0;labelBackgroundColor=none;fontColor=#FFFFFF;" vertex="1" parent="98">
                    <mxGeometry y="120" width="180" height="30" as="geometry"/>
                </mxCell>
                <mxCell id="109" value="" style="shape=partialRectangle;connectable=0;fillColor=none;top=0;left=0;bottom=0;right=0;editable=1;overflow=hidden;labelBackgroundColor=none;fontColor=#FFFFFF;" vertex="1" parent="108">
                    <mxGeometry width="60" height="30" as="geometry">
                        <mxRectangle width="60" height="30" as="alternateBounds"/>
                    </mxGeometry>
                </mxCell>
                <mxCell id="110" value="Descripcion" style="shape=partialRectangle;connectable=0;fillColor=none;top=0;left=0;bottom=0;right=0;align=left;spacingLeft=6;overflow=hidden;labelBackgroundColor=none;fontColor=#FFFFFF;" vertex="1" parent="108">
                    <mxGeometry x="60" width="120" height="30" as="geometry">
                        <mxRectangle width="120" height="30" as="alternateBounds"/>
                    </mxGeometry>
                </mxCell>
                <mxCell id="111" value="CatalogoTipo" style="shape=table;startSize=30;container=1;collapsible=1;childLayout=tableLayout;fixedRows=1;rowLines=0;fontStyle=1;align=center;resizeLast=1;labelBackgroundColor=none;fontColor=#FFFFFF;" vertex="1" parent="1">
                    <mxGeometry x="-670" y="350" width="180" height="150" as="geometry"/>
                </mxCell>
                <mxCell id="112" value="" style="shape=tableRow;horizontal=0;startSize=0;swimlaneHead=0;swimlaneBody=0;fillColor=none;collapsible=0;dropTarget=0;points=[[0,0.5],[1,0.5]];portConstraint=eastwest;top=0;left=0;right=0;bottom=1;labelBackgroundColor=none;fontColor=#FFFFFF;" vertex="1" parent="111">
                    <mxGeometry y="30" width="180" height="30" as="geometry"/>
                </mxCell>
                <mxCell id="113" value="PK" style="shape=partialRectangle;connectable=0;fillColor=none;top=0;left=0;bottom=0;right=0;fontStyle=1;overflow=hidden;labelBackgroundColor=none;fontColor=#FFFFFF;" vertex="1" parent="112">
                    <mxGeometry width="30" height="30" as="geometry">
                        <mxRectangle width="30" height="30" as="alternateBounds"/>
                    </mxGeometry>
                </mxCell>
                <mxCell id="114" value="IdCatalogoTipo" style="shape=partialRectangle;connectable=0;fillColor=none;top=0;left=0;bottom=0;right=0;align=left;spacingLeft=6;fontStyle=5;overflow=hidden;labelBackgroundColor=none;fontColor=#FFFFFF;" vertex="1" parent="112">
                    <mxGeometry x="30" width="150" height="30" as="geometry">
                        <mxRectangle width="150" height="30" as="alternateBounds"/>
                    </mxGeometry>
                </mxCell>
                <mxCell id="115" value="" style="shape=tableRow;horizontal=0;startSize=0;swimlaneHead=0;swimlaneBody=0;fillColor=none;collapsible=0;dropTarget=0;points=[[0,0.5],[1,0.5]];portConstraint=eastwest;top=0;left=0;right=0;bottom=0;labelBackgroundColor=none;fontColor=#FFFFFF;" vertex="1" parent="111">
                    <mxGeometry y="60" width="180" height="30" as="geometry"/>
                </mxCell>
                <mxCell id="116" value="" style="shape=partialRectangle;connectable=0;fillColor=none;top=0;left=0;bottom=0;right=0;editable=1;overflow=hidden;labelBackgroundColor=none;fontColor=#FFFFFF;" vertex="1" parent="115">
                    <mxGeometry width="30" height="30" as="geometry">
                        <mxRectangle width="30" height="30" as="alternateBounds"/>
                    </mxGeometry>
                </mxCell>
                <mxCell id="117" value="Nombre" style="shape=partialRectangle;connectable=0;fillColor=none;top=0;left=0;bottom=0;right=0;align=left;spacingLeft=6;overflow=hidden;labelBackgroundColor=none;fontColor=#FFFFFF;" vertex="1" parent="115">
                    <mxGeometry x="30" width="150" height="30" as="geometry">
                        <mxRectangle width="150" height="30" as="alternateBounds"/>
                    </mxGeometry>
                </mxCell>
                <mxCell id="118" value="" style="shape=tableRow;horizontal=0;startSize=0;swimlaneHead=0;swimlaneBody=0;fillColor=none;collapsible=0;dropTarget=0;points=[[0,0.5],[1,0.5]];portConstraint=eastwest;top=0;left=0;right=0;bottom=0;labelBackgroundColor=none;fontColor=#FFFFFF;" vertex="1" parent="111">
                    <mxGeometry y="90" width="180" height="30" as="geometry"/>
                </mxCell>
                <mxCell id="119" value="" style="shape=partialRectangle;connectable=0;fillColor=none;top=0;left=0;bottom=0;right=0;editable=1;overflow=hidden;labelBackgroundColor=none;fontColor=#FFFFFF;" vertex="1" parent="118">
                    <mxGeometry width="30" height="30" as="geometry">
                        <mxRectangle width="30" height="30" as="alternateBounds"/>
                    </mxGeometry>
                </mxCell>
                <mxCell id="120" value="Descripcion" style="shape=partialRectangle;connectable=0;fillColor=none;top=0;left=0;bottom=0;right=0;align=left;spacingLeft=6;overflow=hidden;labelBackgroundColor=none;fontColor=#FFFFFF;" vertex="1" parent="118">
                    <mxGeometry x="30" width="150" height="30" as="geometry">
                        <mxRectangle width="150" height="30" as="alternateBounds"/>
                    </mxGeometry>
                </mxCell>
                <mxCell id="121" value="" style="shape=tableRow;horizontal=0;startSize=0;swimlaneHead=0;swimlaneBody=0;fillColor=none;collapsible=0;dropTarget=0;points=[[0,0.5],[1,0.5]];portConstraint=eastwest;top=0;left=0;right=0;bottom=0;labelBackgroundColor=none;fontColor=#FFFFFF;" vertex="1" parent="111">
                    <mxGeometry y="120" width="180" height="30" as="geometry"/>
                </mxCell>
                <mxCell id="122" value="" style="shape=partialRectangle;connectable=0;fillColor=none;top=0;left=0;bottom=0;right=0;editable=1;overflow=hidden;labelBackgroundColor=none;fontColor=#FFFFFF;" vertex="1" parent="121">
                    <mxGeometry width="30" height="30" as="geometry">
                        <mxRectangle width="30" height="30" as="alternateBounds"/>
                    </mxGeometry>
                </mxCell>
                <mxCell id="123" value="...." style="shape=partialRectangle;connectable=0;fillColor=none;top=0;left=0;bottom=0;right=0;align=left;spacingLeft=6;overflow=hidden;labelBackgroundColor=none;fontColor=#FFFFFF;" vertex="1" parent="121">
                    <mxGeometry x="30" width="150" height="30" as="geometry">
                        <mxRectangle width="150" height="30" as="alternateBounds"/>
                    </mxGeometry>
                </mxCell>
                <mxCell id="124" value="" style="edgeStyle=entityRelationEdgeStyle;fontSize=12;html=1;endArrow=ERoneToMany;strokeWidth=1;fontColor=#FFFFFF;exitX=1;exitY=0.5;exitDx=0;exitDy=0;entryX=0;entryY=0.5;entryDx=0;entryDy=0;" edge="1" parent="1" source="112" target="102">
                    <mxGeometry width="100" height="100" relative="1" as="geometry">
                        <mxPoint x="-540" y="700" as="sourcePoint"/>
                        <mxPoint x="-440" y="600" as="targetPoint"/>
                    </mxGeometry>
                </mxCell>
                <mxCell id="126" value="" style="edgeStyle=entityRelationEdgeStyle;fontSize=12;html=1;endArrow=ERoneToMany;strokeWidth=1;fontColor=#FFFFFF;exitX=1;exitY=0.5;exitDx=0;exitDy=0;entryX=-0.01;entryY=0.129;entryDx=0;entryDy=0;entryPerimeter=0;" edge="1" parent="1" source="102" target="34">
                    <mxGeometry width="100" height="100" relative="1" as="geometry">
                        <mxPoint x="-180" y="370" as="sourcePoint"/>
                        <mxPoint x="-80" y="270" as="targetPoint"/>
                    </mxGeometry>
                </mxCell>
                <mxCell id="127" value="" style="edgeStyle=entityRelationEdgeStyle;fontSize=12;html=1;endArrow=ERoneToMany;strokeWidth=1;fontColor=#FFFFFF;exitX=1;exitY=0.5;exitDx=0;exitDy=0;entryX=0;entryY=0.5;entryDx=0;entryDy=0;" edge="1" parent="1" source="102" target="34">
                    <mxGeometry width="100" height="100" relative="1" as="geometry">
                        <mxPoint x="-190" y="435" as="sourcePoint"/>
                        <mxPoint x="-92.09999999999991" y="429.03" as="targetPoint"/>
                    </mxGeometry>
                </mxCell>
                <mxCell id="128" value="" style="edgeStyle=entityRelationEdgeStyle;fontSize=12;html=1;endArrow=ERoneToMany;strokeWidth=1;fontColor=#FFFFFF;exitX=1;exitY=0.5;exitDx=0;exitDy=0;entryX=-0.014;entryY=0.829;entryDx=0;entryDy=0;entryPerimeter=0;" edge="1" parent="1" source="102" target="34">
                    <mxGeometry width="100" height="100" relative="1" as="geometry">
                        <mxPoint x="-180" y="445" as="sourcePoint"/>
                        <mxPoint x="-82.09999999999991" y="439.03" as="targetPoint"/>
                    </mxGeometry>
                </mxCell>
                <mxCell id="129" value="&lt;font color=&quot;#000000&quot;&gt;SexoDTO&lt;/font&gt;" style="rounded=1;whiteSpace=wrap;html=1;fillColor=#fad7ac;strokeColor=#b46504;" vertex="1" parent="1">
                    <mxGeometry x="1220" y="335" width="110" height="25" as="geometry"/>
                </mxCell>
                <mxCell id="133" value="&lt;p style=&quot;line-height: 140%; font-size: 22px;&quot;&gt;&lt;font style=&quot;font-size: 22px;&quot; color=&quot;#ffffff&quot;&gt;DAC&lt;/font&gt;&lt;/p&gt;" style="text;html=1;strokeColor=none;fillColor=none;align=center;verticalAlign=middle;whiteSpace=wrap;rounded=0;labelBackgroundColor=none;fontColor=#000000;" vertex="1" parent="1">
                    <mxGeometry x="830" y="60" width="60" height="30" as="geometry"/>
                </mxCell>
                <mxCell id="135" value="&lt;font color=&quot;#000000&quot;&gt;EstadoCivilDTO&lt;/font&gt;" style="rounded=1;whiteSpace=wrap;html=1;fillColor=#fad7ac;strokeColor=#b46504;" vertex="1" parent="1">
                    <mxGeometry x="1220" y="380" width="110" height="27.5" as="geometry"/>
                </mxCell>
                <mxCell id="136" value="&lt;font color=&quot;#000000&quot;&gt;PersonaTipoDTO&lt;/font&gt;" style="rounded=1;whiteSpace=wrap;html=1;fillColor=#fad7ac;strokeColor=#b46504;" vertex="1" parent="1">
                    <mxGeometry x="1215" y="427.5" width="120" height="32.5" as="geometry"/>
                </mxCell>
                <mxCell id="139" value="&lt;p style=&quot;line-height: 140%; font-size: 22px;&quot;&gt;&lt;font style=&quot;font-size: 22px;&quot; color=&quot;#ffffff&quot;&gt;BL&lt;/font&gt;&lt;/p&gt;" style="text;html=1;strokeColor=none;fillColor=none;align=center;verticalAlign=middle;whiteSpace=wrap;rounded=0;labelBackgroundColor=none;fontColor=#000000;" vertex="1" parent="1">
                    <mxGeometry x="1310" y="20" width="60" height="30" as="geometry"/>
                </mxCell>
                <mxCell id="152" style="edgeStyle=none;html=1;strokeWidth=1;fontSize=22;fontColor=#FFFFFF;" edge="1" parent="1" source="140">
                    <mxGeometry relative="1" as="geometry">
                        <mxPoint x="1420" y="150" as="targetPoint"/>
                    </mxGeometry>
                </mxCell>
                <mxCell id="140" value="IABotBL" style="rounded=1;whiteSpace=wrap;html=1;labelBackgroundColor=none;fontSize=22;fontColor=#ffffff;fillColor=#353E47;strokeColor=#314354;" vertex="1" parent="1">
                    <mxGeometry x="1482.5" y="120" width="120" height="60" as="geometry"/>
                </mxCell>
                <mxCell id="151" style="edgeStyle=none;html=1;strokeWidth=1;fontSize=22;fontColor=#FFFFFF;" edge="1" parent="1" source="141">
                    <mxGeometry relative="1" as="geometry">
                        <mxPoint x="1410" y="245" as="targetPoint"/>
                    </mxGeometry>
                </mxCell>
                <mxCell id="141" value="ExaBotBL" style="rounded=1;whiteSpace=wrap;html=1;labelBackgroundColor=none;fontSize=22;fontColor=#ffffff;fillColor=#353E47;strokeColor=#314354;" vertex="1" parent="1">
                    <mxGeometry x="1485" y="215" width="120" height="60" as="geometry"/>
                </mxCell>
                <mxCell id="150" style="edgeStyle=none;html=1;strokeWidth=1;fontSize=22;fontColor=#FFFFFF;" edge="1" parent="1" source="142">
                    <mxGeometry relative="1" as="geometry">
                        <mxPoint x="1410" y="340" as="targetPoint"/>
                    </mxGeometry>
                </mxCell>
                <mxCell id="142" value="SexoBL" style="rounded=1;whiteSpace=wrap;html=1;labelBackgroundColor=none;fontSize=22;fontColor=#ffffff;fillColor=#353E47;strokeColor=#314354;" vertex="1" parent="1">
                    <mxGeometry x="1480" y="320" width="125" height="40" as="geometry"/>
                </mxCell>
                <mxCell id="148" style="edgeStyle=none;html=1;strokeWidth=1;fontSize=22;fontColor=#FFFFFF;" edge="1" parent="1" source="145">
                    <mxGeometry relative="1" as="geometry">
                        <mxPoint x="1410" y="437.5" as="targetPoint"/>
                    </mxGeometry>
                </mxCell>
                <mxCell id="145" value="PersonaTIpoBL" style="rounded=1;whiteSpace=wrap;html=1;labelBackgroundColor=none;fontSize=22;fontColor=#ffffff;fillColor=#353E47;strokeColor=#314354;" vertex="1" parent="1">
                    <mxGeometry x="1480" y="415" width="180" height="45" as="geometry"/>
                </mxCell>
                <mxCell id="149" style="edgeStyle=none;html=1;strokeWidth=1;fontSize=22;fontColor=#FFFFFF;" edge="1" parent="1" source="146">
                    <mxGeometry relative="1" as="geometry">
                        <mxPoint x="1410" y="389.375" as="targetPoint"/>
                    </mxGeometry>
                </mxCell>
                <mxCell id="146" value="EstadoCivilBL" style="rounded=1;whiteSpace=wrap;html=1;labelBackgroundColor=none;fontSize=22;fontColor=#ffffff;fillColor=#353E47;strokeColor=#314354;" vertex="1" parent="1">
                    <mxGeometry x="1480" y="371.25" width="155" height="36.25" as="geometry"/>
                </mxCell>
                <mxCell id="153" value="Entities" style="rounded=1;whiteSpace=wrap;html=1;labelBackgroundColor=none;fontSize=22;fontColor=#ffffff;fillColor=#76608a;strokeColor=#432D57;" vertex="1" parent="1">
                    <mxGeometry x="1482.5" y="20" width="120" height="60" as="geometry"/>
                </mxCell>
            </root>
        </mxGraphModel>
    </diagram>
</mxfile>